G04 #@! TF.GenerationSoftware,KiCad,Pcbnew,(5.1.12-1-10_14)*
G04 #@! TF.CreationDate,2022-02-07T21:28:56+01:00*
G04 #@! TF.ProjectId,SofleKeyboardTopPlate,536f666c-654b-4657-9962-6f617264546f,rev?*
G04 #@! TF.SameCoordinates,Original*
G04 #@! TF.FileFunction,Copper,L2,Bot*
G04 #@! TF.FilePolarity,Positive*
%FSLAX46Y46*%
G04 Gerber Fmt 4.6, Leading zero omitted, Abs format (unit mm)*
G04 Created by KiCad (PCBNEW (5.1.12-1-10_14)) date 2022-02-07 21:28:56*
%MOMM*%
%LPD*%
G01*
G04 APERTURE LIST*
G04 #@! TA.AperFunction,Profile*
%ADD10C,0.150000*%
G04 #@! TD*
G04 #@! TA.AperFunction,Profile*
%ADD11C,0.100000*%
G04 #@! TD*
G04 #@! TA.AperFunction,EtchedComponent*
%ADD12C,0.120000*%
G04 #@! TD*
G04 #@! TA.AperFunction,ComponentPad*
%ADD13C,4.700000*%
G04 #@! TD*
G04 #@! TA.AperFunction,Conductor*
%ADD14C,0.250000*%
G04 #@! TD*
G04 #@! TA.AperFunction,NonConductor*
%ADD15C,0.254000*%
G04 #@! TD*
G04 #@! TA.AperFunction,NonConductor*
%ADD16C,0.100000*%
G04 #@! TD*
G04 APERTURE END LIST*
D10*
X112995000Y-38000000D02*
X113395000Y-37900000D01*
X112695000Y-38100000D02*
X112995000Y-38000000D01*
X112495000Y-38200000D02*
X112695000Y-38100000D01*
X112295000Y-38400000D02*
X112495000Y-38200000D01*
X112095000Y-38700000D02*
X112295000Y-38400000D01*
X111995000Y-39045000D02*
X112095000Y-38700000D01*
X111995000Y-96800000D02*
G75*
G02*
X110995000Y-97800000I-1000000J0D01*
G01*
X89300000Y-98800000D02*
G75*
G02*
X90300000Y-97800000I1000000J0D01*
G01*
X108795000Y-112445000D02*
X108795000Y-106445000D01*
X93195000Y-112445000D02*
X108795000Y-112445000D01*
X93195000Y-99445000D02*
X93195000Y-112445000D01*
X108795000Y-99445000D02*
X93195000Y-99445000D01*
X108795000Y-106445000D02*
X108795000Y-99445000D01*
X111995000Y-96800000D02*
X111995000Y-39045000D01*
X90300000Y-97800000D02*
X110995000Y-97800000D01*
D11*
X225856871Y-45026466D02*
X226021621Y-45140600D01*
X89270257Y-115845000D02*
X89300000Y-98800000D01*
X226163321Y-45280582D02*
X226278881Y-45442807D01*
X149995000Y-36445000D02*
X171945000Y-36445000D01*
X226021621Y-45140600D02*
X226163321Y-45280582D01*
X139149128Y-135445000D02*
X94895000Y-148195000D01*
X83095000Y-128345000D02*
X83195000Y-127845000D01*
X83295000Y-129845000D02*
X83145000Y-129345000D01*
X139149128Y-135445000D02*
X188495000Y-135445000D01*
X149995000Y-36445000D02*
X113395000Y-37900000D01*
X226365281Y-45623672D02*
X226419381Y-45819571D01*
X83195000Y-127845000D02*
X88995000Y-117095000D01*
X226419381Y-45819571D02*
X226438181Y-46026902D01*
X226438181Y-46026902D02*
X226465181Y-120945000D01*
X225470441Y-44890146D02*
X225672111Y-44941776D01*
X93545000Y-147645000D02*
X93895000Y-147945000D01*
X83095000Y-128745000D02*
X83095000Y-128345000D01*
X89195000Y-116495000D02*
X88995000Y-117095000D01*
D10*
X226465181Y-120945000D02*
X188495000Y-135445000D01*
D11*
X225672111Y-44941776D02*
X225856871Y-45026466D01*
X93895000Y-147945000D02*
X94345000Y-148095000D01*
X83145000Y-129345000D02*
X83095000Y-128745000D01*
X94345000Y-148095000D02*
X94895000Y-148195000D01*
X89270257Y-115845000D02*
X89195000Y-116495000D01*
X171945000Y-36445000D02*
X225470441Y-44890146D01*
X93545000Y-147645000D02*
X83295000Y-129845000D01*
X226278881Y-45442807D02*
X226365281Y-45623672D01*
D12*
X223697800Y-103991400D02*
X209697800Y-103991400D01*
X223697800Y-117991400D02*
X223697800Y-103991400D01*
X209697800Y-117991400D02*
X223697800Y-117991400D01*
X209697800Y-103991400D02*
X209697800Y-117991400D01*
X95045622Y-144403578D02*
X107169978Y-137403578D01*
X107169978Y-137403578D02*
X100169978Y-125279222D01*
X100169978Y-125279222D02*
X88045622Y-132279222D01*
X88045622Y-132279222D02*
X95045622Y-144403578D01*
X127071014Y-134791147D02*
X123447547Y-121268186D01*
X123447547Y-121268186D02*
X109924586Y-124891653D01*
X109924586Y-124891653D02*
X113548053Y-138414614D01*
X113548053Y-138414614D02*
X127071014Y-134791147D01*
X128447800Y-101591400D02*
X114447800Y-101591400D01*
X128447800Y-115591400D02*
X128447800Y-101591400D01*
X114447800Y-115591400D02*
X128447800Y-115591400D01*
X114447800Y-101591400D02*
X114447800Y-115591400D01*
X114447800Y-82541400D02*
X114447800Y-96541400D01*
X114447800Y-96541400D02*
X128447800Y-96541400D01*
X128447800Y-96541400D02*
X128447800Y-82541400D01*
X128447800Y-82541400D02*
X114447800Y-82541400D01*
X128447800Y-63491400D02*
X114447800Y-63491400D01*
X128447800Y-77491400D02*
X128447800Y-63491400D01*
X114447800Y-77491400D02*
X128447800Y-77491400D01*
X114447800Y-63491400D02*
X114447800Y-77491400D01*
X114447800Y-44441400D02*
X114447800Y-58441400D01*
X114447800Y-58441400D02*
X128447800Y-58441400D01*
X128447800Y-58441400D02*
X128447800Y-44441400D01*
X128447800Y-44441400D02*
X114447800Y-44441400D01*
X147497800Y-118141400D02*
X133497800Y-118141400D01*
X147497800Y-132141400D02*
X147497800Y-118141400D01*
X133497800Y-132141400D02*
X147497800Y-132141400D01*
X133497800Y-118141400D02*
X133497800Y-132141400D01*
X133497800Y-99091400D02*
X133497800Y-113091400D01*
X133497800Y-113091400D02*
X147497800Y-113091400D01*
X147497800Y-113091400D02*
X147497800Y-99091400D01*
X147497800Y-99091400D02*
X133497800Y-99091400D01*
X147497800Y-80041400D02*
X133497800Y-80041400D01*
X147497800Y-94041400D02*
X147497800Y-80041400D01*
X133497800Y-94041400D02*
X147497800Y-94041400D01*
X133497800Y-80041400D02*
X133497800Y-94041400D01*
X133497800Y-60991400D02*
X133497800Y-74991400D01*
X133497800Y-74991400D02*
X147497800Y-74991400D01*
X147497800Y-74991400D02*
X147497800Y-60991400D01*
X147497800Y-60991400D02*
X133497800Y-60991400D01*
X147497800Y-41941400D02*
X133497800Y-41941400D01*
X147497800Y-55941400D02*
X147497800Y-41941400D01*
X133497800Y-55941400D02*
X147497800Y-55941400D01*
X133497800Y-41941400D02*
X133497800Y-55941400D01*
X152547800Y-115641400D02*
X152547800Y-129641400D01*
X152547800Y-129641400D02*
X166547800Y-129641400D01*
X166547800Y-129641400D02*
X166547800Y-115641400D01*
X166547800Y-115641400D02*
X152547800Y-115641400D01*
X166547800Y-96591400D02*
X152547800Y-96591400D01*
X166547800Y-110591400D02*
X166547800Y-96591400D01*
X152547800Y-110591400D02*
X166547800Y-110591400D01*
X152547800Y-96591400D02*
X152547800Y-110591400D01*
X152547800Y-77541400D02*
X152547800Y-91541400D01*
X152547800Y-91541400D02*
X166547800Y-91541400D01*
X166547800Y-91541400D02*
X166547800Y-77541400D01*
X166547800Y-77541400D02*
X152547800Y-77541400D01*
X166547800Y-58491400D02*
X152547800Y-58491400D01*
X166547800Y-72491400D02*
X166547800Y-58491400D01*
X152547800Y-72491400D02*
X166547800Y-72491400D01*
X152547800Y-58491400D02*
X152547800Y-72491400D01*
X152547800Y-39441400D02*
X152547800Y-53441400D01*
X152547800Y-53441400D02*
X166547800Y-53441400D01*
X166547800Y-53441400D02*
X166547800Y-39441400D01*
X166547800Y-39441400D02*
X152547800Y-39441400D01*
X185597800Y-118141400D02*
X171597800Y-118141400D01*
X185597800Y-132141400D02*
X185597800Y-118141400D01*
X171597800Y-132141400D02*
X185597800Y-132141400D01*
X171597800Y-118141400D02*
X171597800Y-132141400D01*
X171597800Y-99091400D02*
X171597800Y-113091400D01*
X171597800Y-113091400D02*
X185597800Y-113091400D01*
X185597800Y-113091400D02*
X185597800Y-99091400D01*
X185597800Y-99091400D02*
X171597800Y-99091400D01*
X185597800Y-80041400D02*
X171597800Y-80041400D01*
X185597800Y-94041400D02*
X185597800Y-80041400D01*
X171597800Y-94041400D02*
X185597800Y-94041400D01*
X171597800Y-80041400D02*
X171597800Y-94041400D01*
X171597800Y-60991400D02*
X171597800Y-74991400D01*
X171597800Y-74991400D02*
X185597800Y-74991400D01*
X185597800Y-74991400D02*
X185597800Y-60991400D01*
X185597800Y-60991400D02*
X171597800Y-60991400D01*
X185597800Y-41941400D02*
X171597800Y-41941400D01*
X185597800Y-55941400D02*
X185597800Y-41941400D01*
X171597800Y-55941400D02*
X185597800Y-55941400D01*
X171597800Y-41941400D02*
X171597800Y-55941400D01*
X204647800Y-103991400D02*
X190647800Y-103991400D01*
X204647800Y-117991400D02*
X204647800Y-103991400D01*
X190647800Y-117991400D02*
X204647800Y-117991400D01*
X190647800Y-103991400D02*
X190647800Y-117991400D01*
X209697800Y-84941400D02*
X209697800Y-98941400D01*
X209697800Y-98941400D02*
X223697800Y-98941400D01*
X223697800Y-98941400D02*
X223697800Y-84941400D01*
X223697800Y-84941400D02*
X209697800Y-84941400D01*
X204647800Y-84941400D02*
X190647800Y-84941400D01*
X204647800Y-98941400D02*
X204647800Y-84941400D01*
X190647800Y-98941400D02*
X204647800Y-98941400D01*
X190647800Y-84941400D02*
X190647800Y-98941400D01*
X209697800Y-65891400D02*
X209697800Y-79891400D01*
X209697800Y-79891400D02*
X223697800Y-79891400D01*
X223697800Y-79891400D02*
X223697800Y-65891400D01*
X223697800Y-65891400D02*
X209697800Y-65891400D01*
X204647800Y-65891400D02*
X190647800Y-65891400D01*
X204647800Y-79891400D02*
X204647800Y-65891400D01*
X190647800Y-79891400D02*
X204647800Y-79891400D01*
X190647800Y-65891400D02*
X190647800Y-79891400D01*
X190647800Y-46841400D02*
X190647800Y-60841400D01*
X190647800Y-60841400D02*
X204647800Y-60841400D01*
X204647800Y-60841400D02*
X204647800Y-46841400D01*
X204647800Y-46841400D02*
X190647800Y-46841400D01*
X223697800Y-46841400D02*
X209697800Y-46841400D01*
X223697800Y-60841400D02*
X223697800Y-46841400D01*
X209697800Y-60841400D02*
X223697800Y-60841400D01*
X209697800Y-46841400D02*
X209697800Y-60841400D01*
D13*
X103897800Y-120441400D03*
X131252800Y-97216400D03*
X206995000Y-101445000D03*
X131452800Y-58936400D03*
X206995000Y-62945000D03*
D14*
X131274000Y-58757600D02*
X131452800Y-58936400D01*
X131584200Y-58805000D02*
X131452800Y-58936400D01*
X207220000Y-101670000D02*
X206995000Y-101445000D01*
D15*
X225331807Y-45561746D02*
X225442617Y-45590115D01*
X225516481Y-45623972D01*
X225582585Y-45669767D01*
X225639771Y-45726261D01*
X225686436Y-45791768D01*
X225721105Y-45864343D01*
X225742732Y-45942657D01*
X225753192Y-46058012D01*
X225780002Y-120446646D01*
X188298580Y-134760000D01*
X139153838Y-134760000D01*
X139091265Y-134759123D01*
X139053284Y-134766126D01*
X139014845Y-134769912D01*
X138954927Y-134788088D01*
X94859605Y-147492335D01*
X94515432Y-147429758D01*
X94238912Y-147337584D01*
X94079990Y-147201366D01*
X85460882Y-132233548D01*
X87348756Y-132233548D01*
X87353235Y-132370375D01*
X87384322Y-132503702D01*
X87440823Y-132628402D01*
X87460800Y-132656280D01*
X94426671Y-144721525D01*
X94440823Y-144752758D01*
X94460796Y-144780631D01*
X94460801Y-144780639D01*
X94495251Y-144828713D01*
X94520566Y-144864040D01*
X94620487Y-144957626D01*
X94647594Y-144974482D01*
X94736743Y-145029919D01*
X94864872Y-145078144D01*
X94999947Y-145100444D01*
X94999948Y-145100444D01*
X95136775Y-145095965D01*
X95270102Y-145064878D01*
X95363560Y-145022533D01*
X95363571Y-145022527D01*
X95394802Y-145008376D01*
X95422673Y-144988404D01*
X107487933Y-138022524D01*
X107519158Y-138008376D01*
X107547024Y-137988408D01*
X107547039Y-137988399D01*
X107630439Y-137928635D01*
X107724025Y-137828714D01*
X107796319Y-137712457D01*
X107844544Y-137584328D01*
X107866844Y-137449253D01*
X107862365Y-137312425D01*
X107831277Y-137179098D01*
X107831277Y-137179097D01*
X107788933Y-137085639D01*
X107788924Y-137085624D01*
X107774776Y-137054398D01*
X107754807Y-137026531D01*
X100788928Y-124961275D01*
X100778077Y-124937327D01*
X109227720Y-124937327D01*
X109244433Y-125038560D01*
X109244435Y-125038566D01*
X109250021Y-125072402D01*
X109262101Y-125104497D01*
X112867903Y-138561534D01*
X112873488Y-138595363D01*
X112885566Y-138627453D01*
X112885569Y-138627465D01*
X112921711Y-138723492D01*
X112994005Y-138839750D01*
X113087590Y-138939670D01*
X113198871Y-139019414D01*
X113323572Y-139075914D01*
X113456898Y-139107001D01*
X113593727Y-139111481D01*
X113728802Y-139089180D01*
X113760908Y-139077096D01*
X127217924Y-135471300D01*
X127251763Y-135465713D01*
X127283863Y-135453632D01*
X127283865Y-135453631D01*
X127379892Y-135417489D01*
X127496150Y-135345195D01*
X127596070Y-135251610D01*
X127675814Y-135140329D01*
X127732314Y-135015628D01*
X127763401Y-134882302D01*
X127767881Y-134745473D01*
X127745580Y-134610398D01*
X127733496Y-134578292D01*
X124127701Y-121121286D01*
X124122113Y-121087437D01*
X124073889Y-120959308D01*
X124001594Y-120843050D01*
X123908009Y-120743130D01*
X123796728Y-120663387D01*
X123672028Y-120606886D01*
X123538702Y-120575799D01*
X123401873Y-120571320D01*
X123401872Y-120571320D01*
X123300640Y-120588033D01*
X123300634Y-120588035D01*
X123266798Y-120593621D01*
X123234702Y-120605701D01*
X109777676Y-124211501D01*
X109743837Y-124217088D01*
X109711738Y-124229169D01*
X109711735Y-124229170D01*
X109615709Y-124265312D01*
X109499450Y-124337606D01*
X109399530Y-124431191D01*
X109319787Y-124542472D01*
X109263286Y-124667173D01*
X109232199Y-124800498D01*
X109227720Y-124937327D01*
X100778077Y-124937327D01*
X100774776Y-124930042D01*
X100754803Y-124902169D01*
X100754798Y-124902161D01*
X100695034Y-124818760D01*
X100595113Y-124725174D01*
X100478855Y-124652881D01*
X100350727Y-124604656D01*
X100215652Y-124582356D01*
X100078823Y-124586835D01*
X100028405Y-124598591D01*
X99945498Y-124617922D01*
X99908794Y-124634552D01*
X99852039Y-124660267D01*
X99852032Y-124660271D01*
X99820798Y-124674423D01*
X99792924Y-124694397D01*
X87727683Y-131660268D01*
X87696442Y-131674423D01*
X87668562Y-131694402D01*
X87668561Y-131694402D01*
X87585160Y-131754166D01*
X87491574Y-131854087D01*
X87419281Y-131970345D01*
X87371056Y-132098473D01*
X87348756Y-132233548D01*
X85460882Y-132233548D01*
X83928274Y-129572044D01*
X83821687Y-129216756D01*
X83780000Y-128716515D01*
X83780000Y-128412828D01*
X83846575Y-128079954D01*
X88126463Y-120147403D01*
X100912800Y-120147403D01*
X100912800Y-120735397D01*
X101027512Y-121312092D01*
X101252527Y-121855328D01*
X101579199Y-122344226D01*
X101994974Y-122760001D01*
X102483872Y-123086673D01*
X103027108Y-123311688D01*
X103603803Y-123426400D01*
X104191797Y-123426400D01*
X104768492Y-123311688D01*
X105311728Y-123086673D01*
X105800626Y-122760001D01*
X106216401Y-122344226D01*
X106543073Y-121855328D01*
X106768088Y-121312092D01*
X106882800Y-120735397D01*
X106882800Y-120147403D01*
X106768088Y-119570708D01*
X106543073Y-119027472D01*
X106216401Y-118538574D01*
X105819227Y-118141400D01*
X132799438Y-118141400D01*
X132802800Y-118175535D01*
X132802801Y-132107255D01*
X132799438Y-132141400D01*
X132812857Y-132277644D01*
X132852598Y-132408652D01*
X132917133Y-132529389D01*
X133003983Y-132635217D01*
X133109811Y-132722067D01*
X133230548Y-132786602D01*
X133361556Y-132826343D01*
X133463665Y-132836400D01*
X133463666Y-132836400D01*
X133497800Y-132839762D01*
X133531935Y-132836400D01*
X147463665Y-132836400D01*
X147497800Y-132839762D01*
X147531934Y-132836400D01*
X147531935Y-132836400D01*
X147634044Y-132826343D01*
X147765052Y-132786602D01*
X147885789Y-132722067D01*
X147991617Y-132635217D01*
X148078467Y-132529389D01*
X148143002Y-132408652D01*
X148182743Y-132277644D01*
X148196162Y-132141400D01*
X148192800Y-132107265D01*
X148192800Y-118175535D01*
X148196162Y-118141400D01*
X148182743Y-118005156D01*
X148143002Y-117874148D01*
X148078467Y-117753411D01*
X147991617Y-117647583D01*
X147885789Y-117560733D01*
X147765052Y-117496198D01*
X147634044Y-117456457D01*
X147531935Y-117446400D01*
X147497800Y-117443038D01*
X147463666Y-117446400D01*
X133531934Y-117446400D01*
X133497800Y-117443038D01*
X133463665Y-117446400D01*
X133361556Y-117456457D01*
X133230548Y-117496198D01*
X133109811Y-117560733D01*
X133003983Y-117647583D01*
X132917133Y-117753411D01*
X132852598Y-117874148D01*
X132812857Y-118005156D01*
X132799438Y-118141400D01*
X105819227Y-118141400D01*
X105800626Y-118122799D01*
X105311728Y-117796127D01*
X104768492Y-117571112D01*
X104191797Y-117456400D01*
X103603803Y-117456400D01*
X103027108Y-117571112D01*
X102483872Y-117796127D01*
X101994974Y-118122799D01*
X101579199Y-118538574D01*
X101252527Y-119027472D01*
X101027512Y-119570708D01*
X100912800Y-120147403D01*
X88126463Y-120147403D01*
X89578074Y-117456918D01*
X89592980Y-117435873D01*
X89610021Y-117397706D01*
X89613829Y-117390648D01*
X89623760Y-117366935D01*
X89634207Y-117343536D01*
X89636735Y-117335952D01*
X89652891Y-117297374D01*
X89658024Y-117272087D01*
X89835310Y-116740230D01*
X89850164Y-116706034D01*
X89863713Y-116643522D01*
X89877908Y-116581090D01*
X89878923Y-116543817D01*
X89943563Y-115985526D01*
X89945109Y-115980460D01*
X89951310Y-115918616D01*
X89954581Y-115890360D01*
X89954671Y-115885087D01*
X89955197Y-115879842D01*
X89955247Y-115851414D01*
X89956309Y-115789252D01*
X89955364Y-115784038D01*
X89983875Y-99445000D01*
X92481565Y-99445000D01*
X92485000Y-99479877D01*
X92485001Y-112410113D01*
X92481565Y-112445000D01*
X92495273Y-112584184D01*
X92535872Y-112718020D01*
X92601800Y-112841363D01*
X92690525Y-112949475D01*
X92798637Y-113038200D01*
X92921980Y-113104128D01*
X93055816Y-113144727D01*
X93160123Y-113155000D01*
X93195000Y-113158435D01*
X93229877Y-113155000D01*
X108760123Y-113155000D01*
X108795000Y-113158435D01*
X108829877Y-113155000D01*
X108934184Y-113144727D01*
X109068020Y-113104128D01*
X109191363Y-113038200D01*
X109299475Y-112949475D01*
X109388200Y-112841363D01*
X109454128Y-112718020D01*
X109494727Y-112584184D01*
X109508435Y-112445000D01*
X109505000Y-112410123D01*
X109505000Y-101591400D01*
X113749438Y-101591400D01*
X113752800Y-101625535D01*
X113752801Y-115557255D01*
X113749438Y-115591400D01*
X113762857Y-115727644D01*
X113802598Y-115858652D01*
X113867133Y-115979389D01*
X113953983Y-116085217D01*
X114059811Y-116172067D01*
X114180548Y-116236602D01*
X114311556Y-116276343D01*
X114413665Y-116286400D01*
X114413666Y-116286400D01*
X114447800Y-116289762D01*
X114481935Y-116286400D01*
X128413665Y-116286400D01*
X128447800Y-116289762D01*
X128481934Y-116286400D01*
X128481935Y-116286400D01*
X128584044Y-116276343D01*
X128715052Y-116236602D01*
X128835789Y-116172067D01*
X128941617Y-116085217D01*
X129028467Y-115979389D01*
X129093002Y-115858652D01*
X129132743Y-115727644D01*
X129141237Y-115641400D01*
X151849438Y-115641400D01*
X151852800Y-115675535D01*
X151852801Y-129607255D01*
X151849438Y-129641400D01*
X151862857Y-129777644D01*
X151902598Y-129908652D01*
X151967133Y-130029389D01*
X152053983Y-130135217D01*
X152159811Y-130222067D01*
X152280548Y-130286602D01*
X152411556Y-130326343D01*
X152513665Y-130336400D01*
X152513666Y-130336400D01*
X152547800Y-130339762D01*
X152581935Y-130336400D01*
X166513665Y-130336400D01*
X166547800Y-130339762D01*
X166581934Y-130336400D01*
X166581935Y-130336400D01*
X166684044Y-130326343D01*
X166815052Y-130286602D01*
X166935789Y-130222067D01*
X167041617Y-130135217D01*
X167128467Y-130029389D01*
X167193002Y-129908652D01*
X167232743Y-129777644D01*
X167246162Y-129641400D01*
X167242800Y-129607265D01*
X167242800Y-118141400D01*
X170899438Y-118141400D01*
X170902800Y-118175535D01*
X170902801Y-132107255D01*
X170899438Y-132141400D01*
X170912857Y-132277644D01*
X170952598Y-132408652D01*
X171017133Y-132529389D01*
X171103983Y-132635217D01*
X171209811Y-132722067D01*
X171330548Y-132786602D01*
X171461556Y-132826343D01*
X171563665Y-132836400D01*
X171563666Y-132836400D01*
X171597800Y-132839762D01*
X171631935Y-132836400D01*
X185563665Y-132836400D01*
X185597800Y-132839762D01*
X185631934Y-132836400D01*
X185631935Y-132836400D01*
X185734044Y-132826343D01*
X185865052Y-132786602D01*
X185985789Y-132722067D01*
X186091617Y-132635217D01*
X186178467Y-132529389D01*
X186243002Y-132408652D01*
X186282743Y-132277644D01*
X186296162Y-132141400D01*
X186292800Y-132107265D01*
X186292800Y-118175535D01*
X186296162Y-118141400D01*
X186282743Y-118005156D01*
X186243002Y-117874148D01*
X186178467Y-117753411D01*
X186091617Y-117647583D01*
X185985789Y-117560733D01*
X185865052Y-117496198D01*
X185734044Y-117456457D01*
X185631935Y-117446400D01*
X185597800Y-117443038D01*
X185563666Y-117446400D01*
X171631934Y-117446400D01*
X171597800Y-117443038D01*
X171563665Y-117446400D01*
X171461556Y-117456457D01*
X171330548Y-117496198D01*
X171209811Y-117560733D01*
X171103983Y-117647583D01*
X171017133Y-117753411D01*
X170952598Y-117874148D01*
X170912857Y-118005156D01*
X170899438Y-118141400D01*
X167242800Y-118141400D01*
X167242800Y-115675535D01*
X167246162Y-115641400D01*
X167232743Y-115505156D01*
X167193002Y-115374148D01*
X167128467Y-115253411D01*
X167041617Y-115147583D01*
X166935789Y-115060733D01*
X166815052Y-114996198D01*
X166684044Y-114956457D01*
X166581935Y-114946400D01*
X166547800Y-114943038D01*
X166513666Y-114946400D01*
X152581934Y-114946400D01*
X152547800Y-114943038D01*
X152513665Y-114946400D01*
X152411556Y-114956457D01*
X152280548Y-114996198D01*
X152159811Y-115060733D01*
X152053983Y-115147583D01*
X151967133Y-115253411D01*
X151902598Y-115374148D01*
X151862857Y-115505156D01*
X151849438Y-115641400D01*
X129141237Y-115641400D01*
X129146162Y-115591400D01*
X129142800Y-115557265D01*
X129142800Y-101625535D01*
X129146162Y-101591400D01*
X129132743Y-101455156D01*
X129093002Y-101324148D01*
X129028467Y-101203411D01*
X128941617Y-101097583D01*
X128835789Y-101010733D01*
X128715052Y-100946198D01*
X128584044Y-100906457D01*
X128481935Y-100896400D01*
X128447800Y-100893038D01*
X128413666Y-100896400D01*
X114481934Y-100896400D01*
X114447800Y-100893038D01*
X114413665Y-100896400D01*
X114311556Y-100906457D01*
X114180548Y-100946198D01*
X114059811Y-101010733D01*
X113953983Y-101097583D01*
X113867133Y-101203411D01*
X113802598Y-101324148D01*
X113762857Y-101455156D01*
X113749438Y-101591400D01*
X109505000Y-101591400D01*
X109505000Y-99479877D01*
X109508435Y-99445000D01*
X109494727Y-99305816D01*
X109454128Y-99171980D01*
X109388200Y-99048637D01*
X109299475Y-98940525D01*
X109191363Y-98851800D01*
X109068020Y-98785872D01*
X108934184Y-98745273D01*
X108829877Y-98735000D01*
X108795000Y-98731565D01*
X108760123Y-98735000D01*
X93229877Y-98735000D01*
X93195000Y-98731565D01*
X93160123Y-98735000D01*
X93055816Y-98745273D01*
X92921980Y-98785872D01*
X92798637Y-98851800D01*
X92690525Y-98940525D01*
X92601800Y-99048637D01*
X92535872Y-99171980D01*
X92495273Y-99305816D01*
X92481565Y-99445000D01*
X89983875Y-99445000D01*
X89984691Y-98977395D01*
X90005575Y-98879143D01*
X90006611Y-98869285D01*
X90018863Y-98744335D01*
X90035030Y-98690786D01*
X90061288Y-98641403D01*
X90096641Y-98598055D01*
X90139740Y-98562400D01*
X90188937Y-98535799D01*
X90242375Y-98519258D01*
X90330455Y-98510000D01*
X111029877Y-98510000D01*
X111060222Y-98507011D01*
X111066332Y-98507054D01*
X111076198Y-98506086D01*
X111270295Y-98485685D01*
X111333310Y-98472750D01*
X111396540Y-98460688D01*
X111406030Y-98457823D01*
X111592468Y-98400111D01*
X111651797Y-98375171D01*
X111711455Y-98351068D01*
X111720208Y-98346414D01*
X111891885Y-98253589D01*
X111945198Y-98217629D01*
X111999083Y-98182367D01*
X112006765Y-98176102D01*
X112157143Y-98051698D01*
X112202480Y-98006043D01*
X112248463Y-97961013D01*
X112254782Y-97953375D01*
X112378132Y-97802133D01*
X112413757Y-97748513D01*
X112450099Y-97695436D01*
X112454814Y-97686716D01*
X112546439Y-97514394D01*
X112570951Y-97454924D01*
X112596312Y-97395752D01*
X112599243Y-97386282D01*
X112655652Y-97199446D01*
X112668152Y-97136316D01*
X112681530Y-97073377D01*
X112682566Y-97063519D01*
X112701611Y-96869285D01*
X112705000Y-96834877D01*
X112705000Y-82541400D01*
X113749438Y-82541400D01*
X113752800Y-82575535D01*
X113752801Y-96507255D01*
X113749438Y-96541400D01*
X113762857Y-96677644D01*
X113802598Y-96808652D01*
X113867133Y-96929389D01*
X113953983Y-97035217D01*
X114059811Y-97122067D01*
X114180548Y-97186602D01*
X114311556Y-97226343D01*
X114413665Y-97236400D01*
X114413666Y-97236400D01*
X114447800Y-97239762D01*
X114481935Y-97236400D01*
X128267800Y-97236400D01*
X128267800Y-97510397D01*
X128382512Y-98087092D01*
X128607527Y-98630328D01*
X128934199Y-99119226D01*
X129349974Y-99535001D01*
X129838872Y-99861673D01*
X130382108Y-100086688D01*
X130958803Y-100201400D01*
X131546797Y-100201400D01*
X132123492Y-100086688D01*
X132666728Y-99861673D01*
X132802800Y-99770752D01*
X132802801Y-113057255D01*
X132799438Y-113091400D01*
X132812857Y-113227644D01*
X132852598Y-113358652D01*
X132917133Y-113479389D01*
X133003983Y-113585217D01*
X133109811Y-113672067D01*
X133230548Y-113736602D01*
X133361556Y-113776343D01*
X133463665Y-113786400D01*
X133463666Y-113786400D01*
X133497800Y-113789762D01*
X133531935Y-113786400D01*
X147463665Y-113786400D01*
X147497800Y-113789762D01*
X147531934Y-113786400D01*
X147531935Y-113786400D01*
X147634044Y-113776343D01*
X147765052Y-113736602D01*
X147885789Y-113672067D01*
X147991617Y-113585217D01*
X148078467Y-113479389D01*
X148143002Y-113358652D01*
X148182743Y-113227644D01*
X148196162Y-113091400D01*
X148192800Y-113057265D01*
X148192800Y-99125535D01*
X148196162Y-99091400D01*
X148182743Y-98955156D01*
X148143002Y-98824148D01*
X148078467Y-98703411D01*
X147991617Y-98597583D01*
X147885789Y-98510733D01*
X147765052Y-98446198D01*
X147634044Y-98406457D01*
X147531935Y-98396400D01*
X147497800Y-98393038D01*
X147463666Y-98396400D01*
X133994969Y-98396400D01*
X134123088Y-98087092D01*
X134237800Y-97510397D01*
X134237800Y-96922403D01*
X134171960Y-96591400D01*
X151849438Y-96591400D01*
X151852800Y-96625535D01*
X151852801Y-110557255D01*
X151849438Y-110591400D01*
X151862857Y-110727644D01*
X151902598Y-110858652D01*
X151967133Y-110979389D01*
X152053983Y-111085217D01*
X152159811Y-111172067D01*
X152280548Y-111236602D01*
X152411556Y-111276343D01*
X152513665Y-111286400D01*
X152513666Y-111286400D01*
X152547800Y-111289762D01*
X152581935Y-111286400D01*
X166513665Y-111286400D01*
X166547800Y-111289762D01*
X166581934Y-111286400D01*
X166581935Y-111286400D01*
X166684044Y-111276343D01*
X166815052Y-111236602D01*
X166935789Y-111172067D01*
X167041617Y-111085217D01*
X167128467Y-110979389D01*
X167193002Y-110858652D01*
X167232743Y-110727644D01*
X167246162Y-110591400D01*
X167242800Y-110557265D01*
X167242800Y-99091400D01*
X170899438Y-99091400D01*
X170902800Y-99125535D01*
X170902801Y-113057255D01*
X170899438Y-113091400D01*
X170912857Y-113227644D01*
X170952598Y-113358652D01*
X171017133Y-113479389D01*
X171103983Y-113585217D01*
X171209811Y-113672067D01*
X171330548Y-113736602D01*
X171461556Y-113776343D01*
X171563665Y-113786400D01*
X171563666Y-113786400D01*
X171597800Y-113789762D01*
X171631935Y-113786400D01*
X185563665Y-113786400D01*
X185597800Y-113789762D01*
X185631934Y-113786400D01*
X185631935Y-113786400D01*
X185734044Y-113776343D01*
X185865052Y-113736602D01*
X185985789Y-113672067D01*
X186091617Y-113585217D01*
X186178467Y-113479389D01*
X186243002Y-113358652D01*
X186282743Y-113227644D01*
X186296162Y-113091400D01*
X186292800Y-113057265D01*
X186292800Y-99125535D01*
X186296162Y-99091400D01*
X186282743Y-98955156D01*
X186243002Y-98824148D01*
X186178467Y-98703411D01*
X186091617Y-98597583D01*
X185985789Y-98510733D01*
X185865052Y-98446198D01*
X185734044Y-98406457D01*
X185631935Y-98396400D01*
X185597800Y-98393038D01*
X185563666Y-98396400D01*
X171631934Y-98396400D01*
X171597800Y-98393038D01*
X171563665Y-98396400D01*
X171461556Y-98406457D01*
X171330548Y-98446198D01*
X171209811Y-98510733D01*
X171103983Y-98597583D01*
X171017133Y-98703411D01*
X170952598Y-98824148D01*
X170912857Y-98955156D01*
X170899438Y-99091400D01*
X167242800Y-99091400D01*
X167242800Y-96625535D01*
X167246162Y-96591400D01*
X167242727Y-96556519D01*
X167232743Y-96455156D01*
X167193002Y-96324148D01*
X167128467Y-96203411D01*
X167041617Y-96097583D01*
X166935789Y-96010733D01*
X166815052Y-95946198D01*
X166684044Y-95906457D01*
X166547800Y-95893038D01*
X166513666Y-95896400D01*
X152581934Y-95896400D01*
X152547800Y-95893038D01*
X152513665Y-95896400D01*
X152411556Y-95906457D01*
X152280548Y-95946198D01*
X152159811Y-96010733D01*
X152053983Y-96097583D01*
X151967133Y-96203411D01*
X151902598Y-96324148D01*
X151862857Y-96455156D01*
X151849438Y-96591400D01*
X134171960Y-96591400D01*
X134123088Y-96345708D01*
X133898073Y-95802472D01*
X133571401Y-95313574D01*
X133155626Y-94897799D01*
X132666728Y-94571127D01*
X132123492Y-94346112D01*
X131546797Y-94231400D01*
X130958803Y-94231400D01*
X130382108Y-94346112D01*
X129838872Y-94571127D01*
X129349974Y-94897799D01*
X129142800Y-95104973D01*
X129142800Y-82575535D01*
X129146162Y-82541400D01*
X129132743Y-82405156D01*
X129093002Y-82274148D01*
X129028467Y-82153411D01*
X128941617Y-82047583D01*
X128835789Y-81960733D01*
X128715052Y-81896198D01*
X128584044Y-81856457D01*
X128481935Y-81846400D01*
X128447800Y-81843038D01*
X128413666Y-81846400D01*
X114481934Y-81846400D01*
X114447800Y-81843038D01*
X114413665Y-81846400D01*
X114311556Y-81856457D01*
X114180548Y-81896198D01*
X114059811Y-81960733D01*
X113953983Y-82047583D01*
X113867133Y-82153411D01*
X113802598Y-82274148D01*
X113762857Y-82405156D01*
X113749438Y-82541400D01*
X112705000Y-82541400D01*
X112705000Y-80041400D01*
X132799438Y-80041400D01*
X132802800Y-80075535D01*
X132802801Y-94007255D01*
X132799438Y-94041400D01*
X132812857Y-94177644D01*
X132852598Y-94308652D01*
X132917133Y-94429389D01*
X133003983Y-94535217D01*
X133109811Y-94622067D01*
X133230548Y-94686602D01*
X133361556Y-94726343D01*
X133463665Y-94736400D01*
X133463666Y-94736400D01*
X133497800Y-94739762D01*
X133531935Y-94736400D01*
X147463665Y-94736400D01*
X147497800Y-94739762D01*
X147531934Y-94736400D01*
X147531935Y-94736400D01*
X147634044Y-94726343D01*
X147765052Y-94686602D01*
X147885789Y-94622067D01*
X147991617Y-94535217D01*
X148078467Y-94429389D01*
X148143002Y-94308652D01*
X148182743Y-94177644D01*
X148196162Y-94041400D01*
X148192800Y-94007265D01*
X148192800Y-80075535D01*
X148196162Y-80041400D01*
X148182743Y-79905156D01*
X148143002Y-79774148D01*
X148078467Y-79653411D01*
X147991617Y-79547583D01*
X147885789Y-79460733D01*
X147765052Y-79396198D01*
X147634044Y-79356457D01*
X147531935Y-79346400D01*
X147497800Y-79343038D01*
X147463666Y-79346400D01*
X133531934Y-79346400D01*
X133497800Y-79343038D01*
X133463665Y-79346400D01*
X133361556Y-79356457D01*
X133230548Y-79396198D01*
X133109811Y-79460733D01*
X133003983Y-79547583D01*
X132917133Y-79653411D01*
X132852598Y-79774148D01*
X132812857Y-79905156D01*
X132799438Y-80041400D01*
X112705000Y-80041400D01*
X112705000Y-63491400D01*
X113749438Y-63491400D01*
X113752800Y-63525535D01*
X113752801Y-77457255D01*
X113749438Y-77491400D01*
X113762857Y-77627644D01*
X113802598Y-77758652D01*
X113867133Y-77879389D01*
X113953983Y-77985217D01*
X114059811Y-78072067D01*
X114180548Y-78136602D01*
X114311556Y-78176343D01*
X114413665Y-78186400D01*
X114413666Y-78186400D01*
X114447800Y-78189762D01*
X114481935Y-78186400D01*
X128413665Y-78186400D01*
X128447800Y-78189762D01*
X128481934Y-78186400D01*
X128481935Y-78186400D01*
X128584044Y-78176343D01*
X128715052Y-78136602D01*
X128835789Y-78072067D01*
X128941617Y-77985217D01*
X129028467Y-77879389D01*
X129093002Y-77758652D01*
X129132743Y-77627644D01*
X129141237Y-77541400D01*
X151849438Y-77541400D01*
X151852800Y-77575535D01*
X151852801Y-91507255D01*
X151849438Y-91541400D01*
X151862857Y-91677644D01*
X151902598Y-91808652D01*
X151967133Y-91929389D01*
X152053983Y-92035217D01*
X152159811Y-92122067D01*
X152280548Y-92186602D01*
X152411556Y-92226343D01*
X152513665Y-92236400D01*
X152513666Y-92236400D01*
X152547800Y-92239762D01*
X152581935Y-92236400D01*
X166513665Y-92236400D01*
X166547800Y-92239762D01*
X166581934Y-92236400D01*
X166581935Y-92236400D01*
X166684044Y-92226343D01*
X166815052Y-92186602D01*
X166935789Y-92122067D01*
X167041617Y-92035217D01*
X167128467Y-91929389D01*
X167193002Y-91808652D01*
X167232743Y-91677644D01*
X167246162Y-91541400D01*
X167242800Y-91507265D01*
X167242800Y-80041400D01*
X170899438Y-80041400D01*
X170902800Y-80075535D01*
X170902801Y-94007255D01*
X170899438Y-94041400D01*
X170912857Y-94177644D01*
X170952598Y-94308652D01*
X171017133Y-94429389D01*
X171103983Y-94535217D01*
X171209811Y-94622067D01*
X171330548Y-94686602D01*
X171461556Y-94726343D01*
X171563665Y-94736400D01*
X171563666Y-94736400D01*
X171597800Y-94739762D01*
X171631935Y-94736400D01*
X185563665Y-94736400D01*
X185597800Y-94739762D01*
X185631934Y-94736400D01*
X185631935Y-94736400D01*
X185734044Y-94726343D01*
X185865052Y-94686602D01*
X185985789Y-94622067D01*
X186091617Y-94535217D01*
X186178467Y-94429389D01*
X186243002Y-94308652D01*
X186282743Y-94177644D01*
X186296162Y-94041400D01*
X186292800Y-94007265D01*
X186292800Y-84941400D01*
X189949438Y-84941400D01*
X189952800Y-84975535D01*
X189952801Y-98907255D01*
X189949438Y-98941400D01*
X189962857Y-99077644D01*
X190002598Y-99208652D01*
X190067133Y-99329389D01*
X190153983Y-99435217D01*
X190259811Y-99522067D01*
X190380548Y-99586602D01*
X190511556Y-99626343D01*
X190613665Y-99636400D01*
X190613666Y-99636400D01*
X190647800Y-99639762D01*
X190681935Y-99636400D01*
X204613439Y-99636400D01*
X204349727Y-100031072D01*
X204124712Y-100574308D01*
X204010000Y-101151003D01*
X204010000Y-101738997D01*
X204124712Y-102315692D01*
X204349727Y-102858928D01*
X204640285Y-103293778D01*
X204613666Y-103296400D01*
X190681934Y-103296400D01*
X190647800Y-103293038D01*
X190613665Y-103296400D01*
X190511556Y-103306457D01*
X190380548Y-103346198D01*
X190259811Y-103410733D01*
X190153983Y-103497583D01*
X190067133Y-103603411D01*
X190002598Y-103724148D01*
X189962857Y-103855156D01*
X189949438Y-103991400D01*
X189952800Y-104025535D01*
X189952801Y-117957255D01*
X189949438Y-117991400D01*
X189962857Y-118127644D01*
X190002598Y-118258652D01*
X190067133Y-118379389D01*
X190153983Y-118485217D01*
X190259811Y-118572067D01*
X190380548Y-118636602D01*
X190511556Y-118676343D01*
X190613665Y-118686400D01*
X190613666Y-118686400D01*
X190647800Y-118689762D01*
X190681935Y-118686400D01*
X204613665Y-118686400D01*
X204647800Y-118689762D01*
X204681934Y-118686400D01*
X204681935Y-118686400D01*
X204784044Y-118676343D01*
X204915052Y-118636602D01*
X205035789Y-118572067D01*
X205141617Y-118485217D01*
X205228467Y-118379389D01*
X205293002Y-118258652D01*
X205332743Y-118127644D01*
X205346162Y-117991400D01*
X205342800Y-117957265D01*
X205342800Y-104025535D01*
X205346162Y-103991400D01*
X205340038Y-103929219D01*
X205581072Y-104090273D01*
X206124308Y-104315288D01*
X206701003Y-104430000D01*
X207288997Y-104430000D01*
X207865692Y-104315288D01*
X208408928Y-104090273D01*
X208556901Y-103991400D01*
X208999438Y-103991400D01*
X209002800Y-104025535D01*
X209002801Y-117957255D01*
X208999438Y-117991400D01*
X209012857Y-118127644D01*
X209052598Y-118258652D01*
X209117133Y-118379389D01*
X209203983Y-118485217D01*
X209309811Y-118572067D01*
X209430548Y-118636602D01*
X209561556Y-118676343D01*
X209663665Y-118686400D01*
X209663666Y-118686400D01*
X209697800Y-118689762D01*
X209731935Y-118686400D01*
X223663665Y-118686400D01*
X223697800Y-118689762D01*
X223731934Y-118686400D01*
X223731935Y-118686400D01*
X223834044Y-118676343D01*
X223965052Y-118636602D01*
X224085789Y-118572067D01*
X224191617Y-118485217D01*
X224278467Y-118379389D01*
X224343002Y-118258652D01*
X224382743Y-118127644D01*
X224396162Y-117991400D01*
X224392800Y-117957265D01*
X224392800Y-104025535D01*
X224396162Y-103991400D01*
X224382743Y-103855156D01*
X224343002Y-103724148D01*
X224278467Y-103603411D01*
X224191617Y-103497583D01*
X224085789Y-103410733D01*
X223965052Y-103346198D01*
X223834044Y-103306457D01*
X223731935Y-103296400D01*
X223697800Y-103293038D01*
X223663666Y-103296400D01*
X209731934Y-103296400D01*
X209697800Y-103293038D01*
X209663665Y-103296400D01*
X209561556Y-103306457D01*
X209430548Y-103346198D01*
X209309811Y-103410733D01*
X209203983Y-103497583D01*
X209117133Y-103603411D01*
X209052598Y-103724148D01*
X209012857Y-103855156D01*
X208999438Y-103991400D01*
X208556901Y-103991400D01*
X208897826Y-103763601D01*
X209313601Y-103347826D01*
X209640273Y-102858928D01*
X209865288Y-102315692D01*
X209980000Y-101738997D01*
X209980000Y-101151003D01*
X209865288Y-100574308D01*
X209640273Y-100031072D01*
X209313601Y-99542174D01*
X209218822Y-99447395D01*
X209309811Y-99522067D01*
X209430548Y-99586602D01*
X209561556Y-99626343D01*
X209663665Y-99636400D01*
X209663666Y-99636400D01*
X209697800Y-99639762D01*
X209731935Y-99636400D01*
X223663665Y-99636400D01*
X223697800Y-99639762D01*
X223731934Y-99636400D01*
X223731935Y-99636400D01*
X223834044Y-99626343D01*
X223965052Y-99586602D01*
X224085789Y-99522067D01*
X224191617Y-99435217D01*
X224278467Y-99329389D01*
X224343002Y-99208652D01*
X224382743Y-99077644D01*
X224396162Y-98941400D01*
X224392800Y-98907265D01*
X224392800Y-84975535D01*
X224396162Y-84941400D01*
X224382743Y-84805156D01*
X224343002Y-84674148D01*
X224278467Y-84553411D01*
X224191617Y-84447583D01*
X224085789Y-84360733D01*
X223965052Y-84296198D01*
X223834044Y-84256457D01*
X223731935Y-84246400D01*
X223697800Y-84243038D01*
X223663666Y-84246400D01*
X209731934Y-84246400D01*
X209697800Y-84243038D01*
X209663665Y-84246400D01*
X209561556Y-84256457D01*
X209430548Y-84296198D01*
X209309811Y-84360733D01*
X209203983Y-84447583D01*
X209117133Y-84553411D01*
X209052598Y-84674148D01*
X209012857Y-84805156D01*
X208999438Y-84941400D01*
X209002800Y-84975535D01*
X209002801Y-98907255D01*
X208999438Y-98941400D01*
X209012857Y-99077644D01*
X209052598Y-99208652D01*
X209117133Y-99329389D01*
X209191805Y-99420378D01*
X208897826Y-99126399D01*
X208408928Y-98799727D01*
X207865692Y-98574712D01*
X207288997Y-98460000D01*
X206701003Y-98460000D01*
X206124308Y-98574712D01*
X205581072Y-98799727D01*
X205344550Y-98957766D01*
X205346162Y-98941400D01*
X205342800Y-98907265D01*
X205342800Y-84975535D01*
X205346162Y-84941400D01*
X205332743Y-84805156D01*
X205293002Y-84674148D01*
X205228467Y-84553411D01*
X205141617Y-84447583D01*
X205035789Y-84360733D01*
X204915052Y-84296198D01*
X204784044Y-84256457D01*
X204681935Y-84246400D01*
X204647800Y-84243038D01*
X204613666Y-84246400D01*
X190681934Y-84246400D01*
X190647800Y-84243038D01*
X190613665Y-84246400D01*
X190511556Y-84256457D01*
X190380548Y-84296198D01*
X190259811Y-84360733D01*
X190153983Y-84447583D01*
X190067133Y-84553411D01*
X190002598Y-84674148D01*
X189962857Y-84805156D01*
X189949438Y-84941400D01*
X186292800Y-84941400D01*
X186292800Y-80075535D01*
X186296162Y-80041400D01*
X186282743Y-79905156D01*
X186243002Y-79774148D01*
X186178467Y-79653411D01*
X186091617Y-79547583D01*
X185985789Y-79460733D01*
X185865052Y-79396198D01*
X185734044Y-79356457D01*
X185631935Y-79346400D01*
X185597800Y-79343038D01*
X185563666Y-79346400D01*
X171631934Y-79346400D01*
X171597800Y-79343038D01*
X171563665Y-79346400D01*
X171461556Y-79356457D01*
X171330548Y-79396198D01*
X171209811Y-79460733D01*
X171103983Y-79547583D01*
X171017133Y-79653411D01*
X170952598Y-79774148D01*
X170912857Y-79905156D01*
X170899438Y-80041400D01*
X167242800Y-80041400D01*
X167242800Y-77575535D01*
X167246162Y-77541400D01*
X167232743Y-77405156D01*
X167193002Y-77274148D01*
X167128467Y-77153411D01*
X167041617Y-77047583D01*
X166935789Y-76960733D01*
X166815052Y-76896198D01*
X166684044Y-76856457D01*
X166581935Y-76846400D01*
X166547800Y-76843038D01*
X166513666Y-76846400D01*
X152581934Y-76846400D01*
X152547800Y-76843038D01*
X152513665Y-76846400D01*
X152411556Y-76856457D01*
X152280548Y-76896198D01*
X152159811Y-76960733D01*
X152053983Y-77047583D01*
X151967133Y-77153411D01*
X151902598Y-77274148D01*
X151862857Y-77405156D01*
X151849438Y-77541400D01*
X129141237Y-77541400D01*
X129146162Y-77491400D01*
X129142800Y-77457265D01*
X129142800Y-63525535D01*
X129146162Y-63491400D01*
X129132743Y-63355156D01*
X129093002Y-63224148D01*
X129028467Y-63103411D01*
X128941617Y-62997583D01*
X128835789Y-62910733D01*
X128715052Y-62846198D01*
X128584044Y-62806457D01*
X128481935Y-62796400D01*
X128447800Y-62793038D01*
X128413666Y-62796400D01*
X114481934Y-62796400D01*
X114447800Y-62793038D01*
X114413665Y-62796400D01*
X114311556Y-62806457D01*
X114180548Y-62846198D01*
X114059811Y-62910733D01*
X113953983Y-62997583D01*
X113867133Y-63103411D01*
X113802598Y-63224148D01*
X113762857Y-63355156D01*
X113749438Y-63491400D01*
X112705000Y-63491400D01*
X112705000Y-44441400D01*
X113749438Y-44441400D01*
X113752800Y-44475535D01*
X113752801Y-58407255D01*
X113749438Y-58441400D01*
X113762857Y-58577644D01*
X113802598Y-58708652D01*
X113867133Y-58829389D01*
X113953983Y-58935217D01*
X114059811Y-59022067D01*
X114180548Y-59086602D01*
X114311556Y-59126343D01*
X114413665Y-59136400D01*
X114413666Y-59136400D01*
X114447800Y-59139762D01*
X114481935Y-59136400D01*
X128413665Y-59136400D01*
X128447800Y-59139762D01*
X128467800Y-59137792D01*
X128467800Y-59230397D01*
X128582512Y-59807092D01*
X128807527Y-60350328D01*
X129134199Y-60839226D01*
X129549974Y-61255001D01*
X130038872Y-61581673D01*
X130582108Y-61806688D01*
X131158803Y-61921400D01*
X131746797Y-61921400D01*
X132323492Y-61806688D01*
X132802800Y-61608153D01*
X132802801Y-74957255D01*
X132799438Y-74991400D01*
X132812857Y-75127644D01*
X132852598Y-75258652D01*
X132917133Y-75379389D01*
X133003983Y-75485217D01*
X133109811Y-75572067D01*
X133230548Y-75636602D01*
X133361556Y-75676343D01*
X133463665Y-75686400D01*
X133463666Y-75686400D01*
X133497800Y-75689762D01*
X133531935Y-75686400D01*
X147463665Y-75686400D01*
X147497800Y-75689762D01*
X147531934Y-75686400D01*
X147531935Y-75686400D01*
X147634044Y-75676343D01*
X147765052Y-75636602D01*
X147885789Y-75572067D01*
X147991617Y-75485217D01*
X148078467Y-75379389D01*
X148143002Y-75258652D01*
X148182743Y-75127644D01*
X148196162Y-74991400D01*
X148192800Y-74957265D01*
X148192800Y-61025535D01*
X148196162Y-60991400D01*
X148182743Y-60855156D01*
X148143002Y-60724148D01*
X148078467Y-60603411D01*
X147991617Y-60497583D01*
X147885789Y-60410733D01*
X147765052Y-60346198D01*
X147634044Y-60306457D01*
X147531935Y-60296400D01*
X147497800Y-60293038D01*
X147463666Y-60296400D01*
X134120411Y-60296400D01*
X134323088Y-59807092D01*
X134437800Y-59230397D01*
X134437800Y-58642403D01*
X134407764Y-58491400D01*
X151849438Y-58491400D01*
X151852800Y-58525535D01*
X151852801Y-72457255D01*
X151849438Y-72491400D01*
X151862857Y-72627644D01*
X151902598Y-72758652D01*
X151967133Y-72879389D01*
X152053983Y-72985217D01*
X152159811Y-73072067D01*
X152280548Y-73136602D01*
X152411556Y-73176343D01*
X152513665Y-73186400D01*
X152513666Y-73186400D01*
X152547800Y-73189762D01*
X152581935Y-73186400D01*
X166513665Y-73186400D01*
X166547800Y-73189762D01*
X166581934Y-73186400D01*
X166581935Y-73186400D01*
X166684044Y-73176343D01*
X166815052Y-73136602D01*
X166935789Y-73072067D01*
X167041617Y-72985217D01*
X167128467Y-72879389D01*
X167193002Y-72758652D01*
X167232743Y-72627644D01*
X167246162Y-72491400D01*
X167242800Y-72457265D01*
X167242800Y-60991400D01*
X170899438Y-60991400D01*
X170902800Y-61025535D01*
X170902801Y-74957255D01*
X170899438Y-74991400D01*
X170912857Y-75127644D01*
X170952598Y-75258652D01*
X171017133Y-75379389D01*
X171103983Y-75485217D01*
X171209811Y-75572067D01*
X171330548Y-75636602D01*
X171461556Y-75676343D01*
X171563665Y-75686400D01*
X171563666Y-75686400D01*
X171597800Y-75689762D01*
X171631935Y-75686400D01*
X185563665Y-75686400D01*
X185597800Y-75689762D01*
X185631934Y-75686400D01*
X185631935Y-75686400D01*
X185734044Y-75676343D01*
X185865052Y-75636602D01*
X185985789Y-75572067D01*
X186091617Y-75485217D01*
X186178467Y-75379389D01*
X186243002Y-75258652D01*
X186282743Y-75127644D01*
X186296162Y-74991400D01*
X186292800Y-74957265D01*
X186292800Y-65891400D01*
X189949438Y-65891400D01*
X189952800Y-65925535D01*
X189952801Y-79857255D01*
X189949438Y-79891400D01*
X189962857Y-80027644D01*
X190002598Y-80158652D01*
X190067133Y-80279389D01*
X190153983Y-80385217D01*
X190259811Y-80472067D01*
X190380548Y-80536602D01*
X190511556Y-80576343D01*
X190613665Y-80586400D01*
X190613666Y-80586400D01*
X190647800Y-80589762D01*
X190681935Y-80586400D01*
X204613665Y-80586400D01*
X204647800Y-80589762D01*
X204681934Y-80586400D01*
X204681935Y-80586400D01*
X204784044Y-80576343D01*
X204915052Y-80536602D01*
X205035789Y-80472067D01*
X205141617Y-80385217D01*
X205228467Y-80279389D01*
X205293002Y-80158652D01*
X205332743Y-80027644D01*
X205346162Y-79891400D01*
X205342800Y-79857265D01*
X205342800Y-65925535D01*
X205346162Y-65891400D01*
X205332743Y-65755156D01*
X205293002Y-65624148D01*
X205228467Y-65503411D01*
X205141617Y-65397583D01*
X205035789Y-65310733D01*
X204915052Y-65246198D01*
X204784044Y-65206457D01*
X204681935Y-65196400D01*
X204647800Y-65193038D01*
X204613666Y-65196400D01*
X190681934Y-65196400D01*
X190647800Y-65193038D01*
X190613665Y-65196400D01*
X190511556Y-65206457D01*
X190380548Y-65246198D01*
X190259811Y-65310733D01*
X190153983Y-65397583D01*
X190067133Y-65503411D01*
X190002598Y-65624148D01*
X189962857Y-65755156D01*
X189949438Y-65891400D01*
X186292800Y-65891400D01*
X186292800Y-61025535D01*
X186296162Y-60991400D01*
X186282743Y-60855156D01*
X186243002Y-60724148D01*
X186178467Y-60603411D01*
X186091617Y-60497583D01*
X185985789Y-60410733D01*
X185865052Y-60346198D01*
X185734044Y-60306457D01*
X185631935Y-60296400D01*
X185597800Y-60293038D01*
X185563666Y-60296400D01*
X171631934Y-60296400D01*
X171597800Y-60293038D01*
X171563665Y-60296400D01*
X171461556Y-60306457D01*
X171330548Y-60346198D01*
X171209811Y-60410733D01*
X171103983Y-60497583D01*
X171017133Y-60603411D01*
X170952598Y-60724148D01*
X170912857Y-60855156D01*
X170899438Y-60991400D01*
X167242800Y-60991400D01*
X167242800Y-58525535D01*
X167246162Y-58491400D01*
X167232743Y-58355156D01*
X167193002Y-58224148D01*
X167128467Y-58103411D01*
X167041617Y-57997583D01*
X166935789Y-57910733D01*
X166815052Y-57846198D01*
X166684044Y-57806457D01*
X166581935Y-57796400D01*
X166547800Y-57793038D01*
X166513666Y-57796400D01*
X152581934Y-57796400D01*
X152547800Y-57793038D01*
X152513665Y-57796400D01*
X152411556Y-57806457D01*
X152280548Y-57846198D01*
X152159811Y-57910733D01*
X152053983Y-57997583D01*
X151967133Y-58103411D01*
X151902598Y-58224148D01*
X151862857Y-58355156D01*
X151849438Y-58491400D01*
X134407764Y-58491400D01*
X134323088Y-58065708D01*
X134098073Y-57522472D01*
X133771401Y-57033574D01*
X133364456Y-56626629D01*
X133463665Y-56636400D01*
X133463666Y-56636400D01*
X133497800Y-56639762D01*
X133531935Y-56636400D01*
X147463665Y-56636400D01*
X147497800Y-56639762D01*
X147531934Y-56636400D01*
X147531935Y-56636400D01*
X147634044Y-56626343D01*
X147765052Y-56586602D01*
X147885789Y-56522067D01*
X147991617Y-56435217D01*
X148078467Y-56329389D01*
X148143002Y-56208652D01*
X148182743Y-56077644D01*
X148196162Y-55941400D01*
X148192800Y-55907265D01*
X148192800Y-41975535D01*
X148196162Y-41941400D01*
X148182743Y-41805156D01*
X148143002Y-41674148D01*
X148078467Y-41553411D01*
X147991617Y-41447583D01*
X147885789Y-41360733D01*
X147765052Y-41296198D01*
X147634044Y-41256457D01*
X147531935Y-41246400D01*
X147497800Y-41243038D01*
X147463666Y-41246400D01*
X133531934Y-41246400D01*
X133497800Y-41243038D01*
X133463665Y-41246400D01*
X133361556Y-41256457D01*
X133230548Y-41296198D01*
X133109811Y-41360733D01*
X133003983Y-41447583D01*
X132917133Y-41553411D01*
X132852598Y-41674148D01*
X132812857Y-41805156D01*
X132799438Y-41941400D01*
X132802800Y-41975535D01*
X132802801Y-55907255D01*
X132799438Y-55941400D01*
X132812857Y-56077644D01*
X132852598Y-56208652D01*
X132913323Y-56322261D01*
X132866728Y-56291127D01*
X132323492Y-56066112D01*
X131746797Y-55951400D01*
X131158803Y-55951400D01*
X130582108Y-56066112D01*
X130038872Y-56291127D01*
X129549974Y-56617799D01*
X129142800Y-57024973D01*
X129142800Y-44475535D01*
X129146162Y-44441400D01*
X129132743Y-44305156D01*
X129093002Y-44174148D01*
X129028467Y-44053411D01*
X128941617Y-43947583D01*
X128835789Y-43860733D01*
X128715052Y-43796198D01*
X128584044Y-43756457D01*
X128481935Y-43746400D01*
X128447800Y-43743038D01*
X128413666Y-43746400D01*
X114481934Y-43746400D01*
X114447800Y-43743038D01*
X114413665Y-43746400D01*
X114311556Y-43756457D01*
X114180548Y-43796198D01*
X114059811Y-43860733D01*
X113953983Y-43947583D01*
X113867133Y-44053411D01*
X113802598Y-44174148D01*
X113762857Y-44305156D01*
X113749438Y-44441400D01*
X112705000Y-44441400D01*
X112705000Y-39441400D01*
X151849438Y-39441400D01*
X151852800Y-39475535D01*
X151852801Y-53407255D01*
X151849438Y-53441400D01*
X151862857Y-53577644D01*
X151902598Y-53708652D01*
X151967133Y-53829389D01*
X152053983Y-53935217D01*
X152159811Y-54022067D01*
X152280548Y-54086602D01*
X152411556Y-54126343D01*
X152513665Y-54136400D01*
X152513666Y-54136400D01*
X152547800Y-54139762D01*
X152581935Y-54136400D01*
X166513665Y-54136400D01*
X166547800Y-54139762D01*
X166581934Y-54136400D01*
X166581935Y-54136400D01*
X166684044Y-54126343D01*
X166815052Y-54086602D01*
X166935789Y-54022067D01*
X167041617Y-53935217D01*
X167128467Y-53829389D01*
X167193002Y-53708652D01*
X167232743Y-53577644D01*
X167246162Y-53441400D01*
X167242800Y-53407265D01*
X167242800Y-41941400D01*
X170899438Y-41941400D01*
X170902800Y-41975535D01*
X170902801Y-55907255D01*
X170899438Y-55941400D01*
X170912857Y-56077644D01*
X170952598Y-56208652D01*
X171017133Y-56329389D01*
X171103983Y-56435217D01*
X171209811Y-56522067D01*
X171330548Y-56586602D01*
X171461556Y-56626343D01*
X171563665Y-56636400D01*
X171563666Y-56636400D01*
X171597800Y-56639762D01*
X171631935Y-56636400D01*
X185563665Y-56636400D01*
X185597800Y-56639762D01*
X185631934Y-56636400D01*
X185631935Y-56636400D01*
X185734044Y-56626343D01*
X185865052Y-56586602D01*
X185985789Y-56522067D01*
X186091617Y-56435217D01*
X186178467Y-56329389D01*
X186243002Y-56208652D01*
X186282743Y-56077644D01*
X186296162Y-55941400D01*
X186292800Y-55907265D01*
X186292800Y-46841400D01*
X189949438Y-46841400D01*
X189952800Y-46875535D01*
X189952801Y-60807255D01*
X189949438Y-60841400D01*
X189962857Y-60977644D01*
X190002598Y-61108652D01*
X190067133Y-61229389D01*
X190153983Y-61335217D01*
X190259811Y-61422067D01*
X190380548Y-61486602D01*
X190511556Y-61526343D01*
X190613665Y-61536400D01*
X190613666Y-61536400D01*
X190647800Y-61539762D01*
X190681935Y-61536400D01*
X204347520Y-61536400D01*
X204124712Y-62074308D01*
X204010000Y-62651003D01*
X204010000Y-63238997D01*
X204124712Y-63815692D01*
X204349727Y-64358928D01*
X204676399Y-64847826D01*
X205092174Y-65263601D01*
X205581072Y-65590273D01*
X206124308Y-65815288D01*
X206701003Y-65930000D01*
X207288997Y-65930000D01*
X207483051Y-65891400D01*
X208999438Y-65891400D01*
X209002800Y-65925535D01*
X209002801Y-79857255D01*
X208999438Y-79891400D01*
X209012857Y-80027644D01*
X209052598Y-80158652D01*
X209117133Y-80279389D01*
X209203983Y-80385217D01*
X209309811Y-80472067D01*
X209430548Y-80536602D01*
X209561556Y-80576343D01*
X209663665Y-80586400D01*
X209663666Y-80586400D01*
X209697800Y-80589762D01*
X209731935Y-80586400D01*
X223663665Y-80586400D01*
X223697800Y-80589762D01*
X223731934Y-80586400D01*
X223731935Y-80586400D01*
X223834044Y-80576343D01*
X223965052Y-80536602D01*
X224085789Y-80472067D01*
X224191617Y-80385217D01*
X224278467Y-80279389D01*
X224343002Y-80158652D01*
X224382743Y-80027644D01*
X224396162Y-79891400D01*
X224392800Y-79857265D01*
X224392800Y-65925535D01*
X224396162Y-65891400D01*
X224382743Y-65755156D01*
X224343002Y-65624148D01*
X224278467Y-65503411D01*
X224191617Y-65397583D01*
X224085789Y-65310733D01*
X223965052Y-65246198D01*
X223834044Y-65206457D01*
X223731935Y-65196400D01*
X223697800Y-65193038D01*
X223663666Y-65196400D01*
X209731934Y-65196400D01*
X209697800Y-65193038D01*
X209663665Y-65196400D01*
X209561556Y-65206457D01*
X209430548Y-65246198D01*
X209309811Y-65310733D01*
X209203983Y-65397583D01*
X209117133Y-65503411D01*
X209052598Y-65624148D01*
X209012857Y-65755156D01*
X208999438Y-65891400D01*
X207483051Y-65891400D01*
X207865692Y-65815288D01*
X208408928Y-65590273D01*
X208897826Y-65263601D01*
X209313601Y-64847826D01*
X209640273Y-64358928D01*
X209865288Y-63815692D01*
X209980000Y-63238997D01*
X209980000Y-62651003D01*
X209865288Y-62074308D01*
X209641579Y-61534225D01*
X209663665Y-61536400D01*
X209663666Y-61536400D01*
X209697800Y-61539762D01*
X209731935Y-61536400D01*
X223663665Y-61536400D01*
X223697800Y-61539762D01*
X223731934Y-61536400D01*
X223731935Y-61536400D01*
X223834044Y-61526343D01*
X223965052Y-61486602D01*
X224085789Y-61422067D01*
X224191617Y-61335217D01*
X224278467Y-61229389D01*
X224343002Y-61108652D01*
X224382743Y-60977644D01*
X224396162Y-60841400D01*
X224392800Y-60807265D01*
X224392800Y-46875535D01*
X224396162Y-46841400D01*
X224382743Y-46705156D01*
X224343002Y-46574148D01*
X224278467Y-46453411D01*
X224191617Y-46347583D01*
X224085789Y-46260733D01*
X223965052Y-46196198D01*
X223834044Y-46156457D01*
X223731935Y-46146400D01*
X223697800Y-46143038D01*
X223663666Y-46146400D01*
X209731934Y-46146400D01*
X209697800Y-46143038D01*
X209663665Y-46146400D01*
X209561556Y-46156457D01*
X209430548Y-46196198D01*
X209309811Y-46260733D01*
X209203983Y-46347583D01*
X209117133Y-46453411D01*
X209052598Y-46574148D01*
X209012857Y-46705156D01*
X208999438Y-46841400D01*
X209002800Y-46875535D01*
X209002801Y-60731374D01*
X208897826Y-60626399D01*
X208408928Y-60299727D01*
X207865692Y-60074712D01*
X207288997Y-59960000D01*
X206701003Y-59960000D01*
X206124308Y-60074712D01*
X205581072Y-60299727D01*
X205342800Y-60458936D01*
X205342800Y-46875535D01*
X205346162Y-46841400D01*
X205332743Y-46705156D01*
X205293002Y-46574148D01*
X205228467Y-46453411D01*
X205141617Y-46347583D01*
X205035789Y-46260733D01*
X204915052Y-46196198D01*
X204784044Y-46156457D01*
X204681935Y-46146400D01*
X204647800Y-46143038D01*
X204613666Y-46146400D01*
X190681934Y-46146400D01*
X190647800Y-46143038D01*
X190613665Y-46146400D01*
X190511556Y-46156457D01*
X190380548Y-46196198D01*
X190259811Y-46260733D01*
X190153983Y-46347583D01*
X190067133Y-46453411D01*
X190002598Y-46574148D01*
X189962857Y-46705156D01*
X189949438Y-46841400D01*
X186292800Y-46841400D01*
X186292800Y-41975535D01*
X186296162Y-41941400D01*
X186282743Y-41805156D01*
X186243002Y-41674148D01*
X186178467Y-41553411D01*
X186091617Y-41447583D01*
X185985789Y-41360733D01*
X185865052Y-41296198D01*
X185734044Y-41256457D01*
X185631935Y-41246400D01*
X185597800Y-41243038D01*
X185563666Y-41246400D01*
X171631934Y-41246400D01*
X171597800Y-41243038D01*
X171563665Y-41246400D01*
X171461556Y-41256457D01*
X171330548Y-41296198D01*
X171209811Y-41360733D01*
X171103983Y-41447583D01*
X171017133Y-41553411D01*
X170952598Y-41674148D01*
X170912857Y-41805156D01*
X170899438Y-41941400D01*
X167242800Y-41941400D01*
X167242800Y-39475535D01*
X167246162Y-39441400D01*
X167232743Y-39305156D01*
X167193002Y-39174148D01*
X167128467Y-39053411D01*
X167041617Y-38947583D01*
X166935789Y-38860733D01*
X166815052Y-38796198D01*
X166684044Y-38756457D01*
X166581935Y-38746400D01*
X166547800Y-38743038D01*
X166513666Y-38746400D01*
X152581934Y-38746400D01*
X152547800Y-38743038D01*
X152513665Y-38746400D01*
X152411556Y-38756457D01*
X152280548Y-38796198D01*
X152159811Y-38860733D01*
X152053983Y-38947583D01*
X151967133Y-39053411D01*
X151902598Y-39174148D01*
X151862857Y-39305156D01*
X151849438Y-39441400D01*
X112705000Y-39441400D01*
X112705000Y-39145821D01*
X112746463Y-39002775D01*
X112846756Y-38852335D01*
X112915575Y-38783516D01*
X112967387Y-38757610D01*
X113193645Y-38682190D01*
X113601036Y-38580342D01*
X113610460Y-38576975D01*
X150008615Y-37130000D01*
X171891299Y-37130000D01*
X225331807Y-45561746D01*
G04 #@! TA.AperFunction,NonConductor*
D16*
G36*
X225331807Y-45561746D02*
G01*
X225442617Y-45590115D01*
X225516481Y-45623972D01*
X225582585Y-45669767D01*
X225639771Y-45726261D01*
X225686436Y-45791768D01*
X225721105Y-45864343D01*
X225742732Y-45942657D01*
X225753192Y-46058012D01*
X225780002Y-120446646D01*
X188298580Y-134760000D01*
X139153838Y-134760000D01*
X139091265Y-134759123D01*
X139053284Y-134766126D01*
X139014845Y-134769912D01*
X138954927Y-134788088D01*
X94859605Y-147492335D01*
X94515432Y-147429758D01*
X94238912Y-147337584D01*
X94079990Y-147201366D01*
X85460882Y-132233548D01*
X87348756Y-132233548D01*
X87353235Y-132370375D01*
X87384322Y-132503702D01*
X87440823Y-132628402D01*
X87460800Y-132656280D01*
X94426671Y-144721525D01*
X94440823Y-144752758D01*
X94460796Y-144780631D01*
X94460801Y-144780639D01*
X94495251Y-144828713D01*
X94520566Y-144864040D01*
X94620487Y-144957626D01*
X94647594Y-144974482D01*
X94736743Y-145029919D01*
X94864872Y-145078144D01*
X94999947Y-145100444D01*
X94999948Y-145100444D01*
X95136775Y-145095965D01*
X95270102Y-145064878D01*
X95363560Y-145022533D01*
X95363571Y-145022527D01*
X95394802Y-145008376D01*
X95422673Y-144988404D01*
X107487933Y-138022524D01*
X107519158Y-138008376D01*
X107547024Y-137988408D01*
X107547039Y-137988399D01*
X107630439Y-137928635D01*
X107724025Y-137828714D01*
X107796319Y-137712457D01*
X107844544Y-137584328D01*
X107866844Y-137449253D01*
X107862365Y-137312425D01*
X107831277Y-137179098D01*
X107831277Y-137179097D01*
X107788933Y-137085639D01*
X107788924Y-137085624D01*
X107774776Y-137054398D01*
X107754807Y-137026531D01*
X100788928Y-124961275D01*
X100778077Y-124937327D01*
X109227720Y-124937327D01*
X109244433Y-125038560D01*
X109244435Y-125038566D01*
X109250021Y-125072402D01*
X109262101Y-125104497D01*
X112867903Y-138561534D01*
X112873488Y-138595363D01*
X112885566Y-138627453D01*
X112885569Y-138627465D01*
X112921711Y-138723492D01*
X112994005Y-138839750D01*
X113087590Y-138939670D01*
X113198871Y-139019414D01*
X113323572Y-139075914D01*
X113456898Y-139107001D01*
X113593727Y-139111481D01*
X113728802Y-139089180D01*
X113760908Y-139077096D01*
X127217924Y-135471300D01*
X127251763Y-135465713D01*
X127283863Y-135453632D01*
X127283865Y-135453631D01*
X127379892Y-135417489D01*
X127496150Y-135345195D01*
X127596070Y-135251610D01*
X127675814Y-135140329D01*
X127732314Y-135015628D01*
X127763401Y-134882302D01*
X127767881Y-134745473D01*
X127745580Y-134610398D01*
X127733496Y-134578292D01*
X124127701Y-121121286D01*
X124122113Y-121087437D01*
X124073889Y-120959308D01*
X124001594Y-120843050D01*
X123908009Y-120743130D01*
X123796728Y-120663387D01*
X123672028Y-120606886D01*
X123538702Y-120575799D01*
X123401873Y-120571320D01*
X123401872Y-120571320D01*
X123300640Y-120588033D01*
X123300634Y-120588035D01*
X123266798Y-120593621D01*
X123234702Y-120605701D01*
X109777676Y-124211501D01*
X109743837Y-124217088D01*
X109711738Y-124229169D01*
X109711735Y-124229170D01*
X109615709Y-124265312D01*
X109499450Y-124337606D01*
X109399530Y-124431191D01*
X109319787Y-124542472D01*
X109263286Y-124667173D01*
X109232199Y-124800498D01*
X109227720Y-124937327D01*
X100778077Y-124937327D01*
X100774776Y-124930042D01*
X100754803Y-124902169D01*
X100754798Y-124902161D01*
X100695034Y-124818760D01*
X100595113Y-124725174D01*
X100478855Y-124652881D01*
X100350727Y-124604656D01*
X100215652Y-124582356D01*
X100078823Y-124586835D01*
X100028405Y-124598591D01*
X99945498Y-124617922D01*
X99908794Y-124634552D01*
X99852039Y-124660267D01*
X99852032Y-124660271D01*
X99820798Y-124674423D01*
X99792924Y-124694397D01*
X87727683Y-131660268D01*
X87696442Y-131674423D01*
X87668562Y-131694402D01*
X87668561Y-131694402D01*
X87585160Y-131754166D01*
X87491574Y-131854087D01*
X87419281Y-131970345D01*
X87371056Y-132098473D01*
X87348756Y-132233548D01*
X85460882Y-132233548D01*
X83928274Y-129572044D01*
X83821687Y-129216756D01*
X83780000Y-128716515D01*
X83780000Y-128412828D01*
X83846575Y-128079954D01*
X88126463Y-120147403D01*
X100912800Y-120147403D01*
X100912800Y-120735397D01*
X101027512Y-121312092D01*
X101252527Y-121855328D01*
X101579199Y-122344226D01*
X101994974Y-122760001D01*
X102483872Y-123086673D01*
X103027108Y-123311688D01*
X103603803Y-123426400D01*
X104191797Y-123426400D01*
X104768492Y-123311688D01*
X105311728Y-123086673D01*
X105800626Y-122760001D01*
X106216401Y-122344226D01*
X106543073Y-121855328D01*
X106768088Y-121312092D01*
X106882800Y-120735397D01*
X106882800Y-120147403D01*
X106768088Y-119570708D01*
X106543073Y-119027472D01*
X106216401Y-118538574D01*
X105819227Y-118141400D01*
X132799438Y-118141400D01*
X132802800Y-118175535D01*
X132802801Y-132107255D01*
X132799438Y-132141400D01*
X132812857Y-132277644D01*
X132852598Y-132408652D01*
X132917133Y-132529389D01*
X133003983Y-132635217D01*
X133109811Y-132722067D01*
X133230548Y-132786602D01*
X133361556Y-132826343D01*
X133463665Y-132836400D01*
X133463666Y-132836400D01*
X133497800Y-132839762D01*
X133531935Y-132836400D01*
X147463665Y-132836400D01*
X147497800Y-132839762D01*
X147531934Y-132836400D01*
X147531935Y-132836400D01*
X147634044Y-132826343D01*
X147765052Y-132786602D01*
X147885789Y-132722067D01*
X147991617Y-132635217D01*
X148078467Y-132529389D01*
X148143002Y-132408652D01*
X148182743Y-132277644D01*
X148196162Y-132141400D01*
X148192800Y-132107265D01*
X148192800Y-118175535D01*
X148196162Y-118141400D01*
X148182743Y-118005156D01*
X148143002Y-117874148D01*
X148078467Y-117753411D01*
X147991617Y-117647583D01*
X147885789Y-117560733D01*
X147765052Y-117496198D01*
X147634044Y-117456457D01*
X147531935Y-117446400D01*
X147497800Y-117443038D01*
X147463666Y-117446400D01*
X133531934Y-117446400D01*
X133497800Y-117443038D01*
X133463665Y-117446400D01*
X133361556Y-117456457D01*
X133230548Y-117496198D01*
X133109811Y-117560733D01*
X133003983Y-117647583D01*
X132917133Y-117753411D01*
X132852598Y-117874148D01*
X132812857Y-118005156D01*
X132799438Y-118141400D01*
X105819227Y-118141400D01*
X105800626Y-118122799D01*
X105311728Y-117796127D01*
X104768492Y-117571112D01*
X104191797Y-117456400D01*
X103603803Y-117456400D01*
X103027108Y-117571112D01*
X102483872Y-117796127D01*
X101994974Y-118122799D01*
X101579199Y-118538574D01*
X101252527Y-119027472D01*
X101027512Y-119570708D01*
X100912800Y-120147403D01*
X88126463Y-120147403D01*
X89578074Y-117456918D01*
X89592980Y-117435873D01*
X89610021Y-117397706D01*
X89613829Y-117390648D01*
X89623760Y-117366935D01*
X89634207Y-117343536D01*
X89636735Y-117335952D01*
X89652891Y-117297374D01*
X89658024Y-117272087D01*
X89835310Y-116740230D01*
X89850164Y-116706034D01*
X89863713Y-116643522D01*
X89877908Y-116581090D01*
X89878923Y-116543817D01*
X89943563Y-115985526D01*
X89945109Y-115980460D01*
X89951310Y-115918616D01*
X89954581Y-115890360D01*
X89954671Y-115885087D01*
X89955197Y-115879842D01*
X89955247Y-115851414D01*
X89956309Y-115789252D01*
X89955364Y-115784038D01*
X89983875Y-99445000D01*
X92481565Y-99445000D01*
X92485000Y-99479877D01*
X92485001Y-112410113D01*
X92481565Y-112445000D01*
X92495273Y-112584184D01*
X92535872Y-112718020D01*
X92601800Y-112841363D01*
X92690525Y-112949475D01*
X92798637Y-113038200D01*
X92921980Y-113104128D01*
X93055816Y-113144727D01*
X93160123Y-113155000D01*
X93195000Y-113158435D01*
X93229877Y-113155000D01*
X108760123Y-113155000D01*
X108795000Y-113158435D01*
X108829877Y-113155000D01*
X108934184Y-113144727D01*
X109068020Y-113104128D01*
X109191363Y-113038200D01*
X109299475Y-112949475D01*
X109388200Y-112841363D01*
X109454128Y-112718020D01*
X109494727Y-112584184D01*
X109508435Y-112445000D01*
X109505000Y-112410123D01*
X109505000Y-101591400D01*
X113749438Y-101591400D01*
X113752800Y-101625535D01*
X113752801Y-115557255D01*
X113749438Y-115591400D01*
X113762857Y-115727644D01*
X113802598Y-115858652D01*
X113867133Y-115979389D01*
X113953983Y-116085217D01*
X114059811Y-116172067D01*
X114180548Y-116236602D01*
X114311556Y-116276343D01*
X114413665Y-116286400D01*
X114413666Y-116286400D01*
X114447800Y-116289762D01*
X114481935Y-116286400D01*
X128413665Y-116286400D01*
X128447800Y-116289762D01*
X128481934Y-116286400D01*
X128481935Y-116286400D01*
X128584044Y-116276343D01*
X128715052Y-116236602D01*
X128835789Y-116172067D01*
X128941617Y-116085217D01*
X129028467Y-115979389D01*
X129093002Y-115858652D01*
X129132743Y-115727644D01*
X129141237Y-115641400D01*
X151849438Y-115641400D01*
X151852800Y-115675535D01*
X151852801Y-129607255D01*
X151849438Y-129641400D01*
X151862857Y-129777644D01*
X151902598Y-129908652D01*
X151967133Y-130029389D01*
X152053983Y-130135217D01*
X152159811Y-130222067D01*
X152280548Y-130286602D01*
X152411556Y-130326343D01*
X152513665Y-130336400D01*
X152513666Y-130336400D01*
X152547800Y-130339762D01*
X152581935Y-130336400D01*
X166513665Y-130336400D01*
X166547800Y-130339762D01*
X166581934Y-130336400D01*
X166581935Y-130336400D01*
X166684044Y-130326343D01*
X166815052Y-130286602D01*
X166935789Y-130222067D01*
X167041617Y-130135217D01*
X167128467Y-130029389D01*
X167193002Y-129908652D01*
X167232743Y-129777644D01*
X167246162Y-129641400D01*
X167242800Y-129607265D01*
X167242800Y-118141400D01*
X170899438Y-118141400D01*
X170902800Y-118175535D01*
X170902801Y-132107255D01*
X170899438Y-132141400D01*
X170912857Y-132277644D01*
X170952598Y-132408652D01*
X171017133Y-132529389D01*
X171103983Y-132635217D01*
X171209811Y-132722067D01*
X171330548Y-132786602D01*
X171461556Y-132826343D01*
X171563665Y-132836400D01*
X171563666Y-132836400D01*
X171597800Y-132839762D01*
X171631935Y-132836400D01*
X185563665Y-132836400D01*
X185597800Y-132839762D01*
X185631934Y-132836400D01*
X185631935Y-132836400D01*
X185734044Y-132826343D01*
X185865052Y-132786602D01*
X185985789Y-132722067D01*
X186091617Y-132635217D01*
X186178467Y-132529389D01*
X186243002Y-132408652D01*
X186282743Y-132277644D01*
X186296162Y-132141400D01*
X186292800Y-132107265D01*
X186292800Y-118175535D01*
X186296162Y-118141400D01*
X186282743Y-118005156D01*
X186243002Y-117874148D01*
X186178467Y-117753411D01*
X186091617Y-117647583D01*
X185985789Y-117560733D01*
X185865052Y-117496198D01*
X185734044Y-117456457D01*
X185631935Y-117446400D01*
X185597800Y-117443038D01*
X185563666Y-117446400D01*
X171631934Y-117446400D01*
X171597800Y-117443038D01*
X171563665Y-117446400D01*
X171461556Y-117456457D01*
X171330548Y-117496198D01*
X171209811Y-117560733D01*
X171103983Y-117647583D01*
X171017133Y-117753411D01*
X170952598Y-117874148D01*
X170912857Y-118005156D01*
X170899438Y-118141400D01*
X167242800Y-118141400D01*
X167242800Y-115675535D01*
X167246162Y-115641400D01*
X167232743Y-115505156D01*
X167193002Y-115374148D01*
X167128467Y-115253411D01*
X167041617Y-115147583D01*
X166935789Y-115060733D01*
X166815052Y-114996198D01*
X166684044Y-114956457D01*
X166581935Y-114946400D01*
X166547800Y-114943038D01*
X166513666Y-114946400D01*
X152581934Y-114946400D01*
X152547800Y-114943038D01*
X152513665Y-114946400D01*
X152411556Y-114956457D01*
X152280548Y-114996198D01*
X152159811Y-115060733D01*
X152053983Y-115147583D01*
X151967133Y-115253411D01*
X151902598Y-115374148D01*
X151862857Y-115505156D01*
X151849438Y-115641400D01*
X129141237Y-115641400D01*
X129146162Y-115591400D01*
X129142800Y-115557265D01*
X129142800Y-101625535D01*
X129146162Y-101591400D01*
X129132743Y-101455156D01*
X129093002Y-101324148D01*
X129028467Y-101203411D01*
X128941617Y-101097583D01*
X128835789Y-101010733D01*
X128715052Y-100946198D01*
X128584044Y-100906457D01*
X128481935Y-100896400D01*
X128447800Y-100893038D01*
X128413666Y-100896400D01*
X114481934Y-100896400D01*
X114447800Y-100893038D01*
X114413665Y-100896400D01*
X114311556Y-100906457D01*
X114180548Y-100946198D01*
X114059811Y-101010733D01*
X113953983Y-101097583D01*
X113867133Y-101203411D01*
X113802598Y-101324148D01*
X113762857Y-101455156D01*
X113749438Y-101591400D01*
X109505000Y-101591400D01*
X109505000Y-99479877D01*
X109508435Y-99445000D01*
X109494727Y-99305816D01*
X109454128Y-99171980D01*
X109388200Y-99048637D01*
X109299475Y-98940525D01*
X109191363Y-98851800D01*
X109068020Y-98785872D01*
X108934184Y-98745273D01*
X108829877Y-98735000D01*
X108795000Y-98731565D01*
X108760123Y-98735000D01*
X93229877Y-98735000D01*
X93195000Y-98731565D01*
X93160123Y-98735000D01*
X93055816Y-98745273D01*
X92921980Y-98785872D01*
X92798637Y-98851800D01*
X92690525Y-98940525D01*
X92601800Y-99048637D01*
X92535872Y-99171980D01*
X92495273Y-99305816D01*
X92481565Y-99445000D01*
X89983875Y-99445000D01*
X89984691Y-98977395D01*
X90005575Y-98879143D01*
X90006611Y-98869285D01*
X90018863Y-98744335D01*
X90035030Y-98690786D01*
X90061288Y-98641403D01*
X90096641Y-98598055D01*
X90139740Y-98562400D01*
X90188937Y-98535799D01*
X90242375Y-98519258D01*
X90330455Y-98510000D01*
X111029877Y-98510000D01*
X111060222Y-98507011D01*
X111066332Y-98507054D01*
X111076198Y-98506086D01*
X111270295Y-98485685D01*
X111333310Y-98472750D01*
X111396540Y-98460688D01*
X111406030Y-98457823D01*
X111592468Y-98400111D01*
X111651797Y-98375171D01*
X111711455Y-98351068D01*
X111720208Y-98346414D01*
X111891885Y-98253589D01*
X111945198Y-98217629D01*
X111999083Y-98182367D01*
X112006765Y-98176102D01*
X112157143Y-98051698D01*
X112202480Y-98006043D01*
X112248463Y-97961013D01*
X112254782Y-97953375D01*
X112378132Y-97802133D01*
X112413757Y-97748513D01*
X112450099Y-97695436D01*
X112454814Y-97686716D01*
X112546439Y-97514394D01*
X112570951Y-97454924D01*
X112596312Y-97395752D01*
X112599243Y-97386282D01*
X112655652Y-97199446D01*
X112668152Y-97136316D01*
X112681530Y-97073377D01*
X112682566Y-97063519D01*
X112701611Y-96869285D01*
X112705000Y-96834877D01*
X112705000Y-82541400D01*
X113749438Y-82541400D01*
X113752800Y-82575535D01*
X113752801Y-96507255D01*
X113749438Y-96541400D01*
X113762857Y-96677644D01*
X113802598Y-96808652D01*
X113867133Y-96929389D01*
X113953983Y-97035217D01*
X114059811Y-97122067D01*
X114180548Y-97186602D01*
X114311556Y-97226343D01*
X114413665Y-97236400D01*
X114413666Y-97236400D01*
X114447800Y-97239762D01*
X114481935Y-97236400D01*
X128267800Y-97236400D01*
X128267800Y-97510397D01*
X128382512Y-98087092D01*
X128607527Y-98630328D01*
X128934199Y-99119226D01*
X129349974Y-99535001D01*
X129838872Y-99861673D01*
X130382108Y-100086688D01*
X130958803Y-100201400D01*
X131546797Y-100201400D01*
X132123492Y-100086688D01*
X132666728Y-99861673D01*
X132802800Y-99770752D01*
X132802801Y-113057255D01*
X132799438Y-113091400D01*
X132812857Y-113227644D01*
X132852598Y-113358652D01*
X132917133Y-113479389D01*
X133003983Y-113585217D01*
X133109811Y-113672067D01*
X133230548Y-113736602D01*
X133361556Y-113776343D01*
X133463665Y-113786400D01*
X133463666Y-113786400D01*
X133497800Y-113789762D01*
X133531935Y-113786400D01*
X147463665Y-113786400D01*
X147497800Y-113789762D01*
X147531934Y-113786400D01*
X147531935Y-113786400D01*
X147634044Y-113776343D01*
X147765052Y-113736602D01*
X147885789Y-113672067D01*
X147991617Y-113585217D01*
X148078467Y-113479389D01*
X148143002Y-113358652D01*
X148182743Y-113227644D01*
X148196162Y-113091400D01*
X148192800Y-113057265D01*
X148192800Y-99125535D01*
X148196162Y-99091400D01*
X148182743Y-98955156D01*
X148143002Y-98824148D01*
X148078467Y-98703411D01*
X147991617Y-98597583D01*
X147885789Y-98510733D01*
X147765052Y-98446198D01*
X147634044Y-98406457D01*
X147531935Y-98396400D01*
X147497800Y-98393038D01*
X147463666Y-98396400D01*
X133994969Y-98396400D01*
X134123088Y-98087092D01*
X134237800Y-97510397D01*
X134237800Y-96922403D01*
X134171960Y-96591400D01*
X151849438Y-96591400D01*
X151852800Y-96625535D01*
X151852801Y-110557255D01*
X151849438Y-110591400D01*
X151862857Y-110727644D01*
X151902598Y-110858652D01*
X151967133Y-110979389D01*
X152053983Y-111085217D01*
X152159811Y-111172067D01*
X152280548Y-111236602D01*
X152411556Y-111276343D01*
X152513665Y-111286400D01*
X152513666Y-111286400D01*
X152547800Y-111289762D01*
X152581935Y-111286400D01*
X166513665Y-111286400D01*
X166547800Y-111289762D01*
X166581934Y-111286400D01*
X166581935Y-111286400D01*
X166684044Y-111276343D01*
X166815052Y-111236602D01*
X166935789Y-111172067D01*
X167041617Y-111085217D01*
X167128467Y-110979389D01*
X167193002Y-110858652D01*
X167232743Y-110727644D01*
X167246162Y-110591400D01*
X167242800Y-110557265D01*
X167242800Y-99091400D01*
X170899438Y-99091400D01*
X170902800Y-99125535D01*
X170902801Y-113057255D01*
X170899438Y-113091400D01*
X170912857Y-113227644D01*
X170952598Y-113358652D01*
X171017133Y-113479389D01*
X171103983Y-113585217D01*
X171209811Y-113672067D01*
X171330548Y-113736602D01*
X171461556Y-113776343D01*
X171563665Y-113786400D01*
X171563666Y-113786400D01*
X171597800Y-113789762D01*
X171631935Y-113786400D01*
X185563665Y-113786400D01*
X185597800Y-113789762D01*
X185631934Y-113786400D01*
X185631935Y-113786400D01*
X185734044Y-113776343D01*
X185865052Y-113736602D01*
X185985789Y-113672067D01*
X186091617Y-113585217D01*
X186178467Y-113479389D01*
X186243002Y-113358652D01*
X186282743Y-113227644D01*
X186296162Y-113091400D01*
X186292800Y-113057265D01*
X186292800Y-99125535D01*
X186296162Y-99091400D01*
X186282743Y-98955156D01*
X186243002Y-98824148D01*
X186178467Y-98703411D01*
X186091617Y-98597583D01*
X185985789Y-98510733D01*
X185865052Y-98446198D01*
X185734044Y-98406457D01*
X185631935Y-98396400D01*
X185597800Y-98393038D01*
X185563666Y-98396400D01*
X171631934Y-98396400D01*
X171597800Y-98393038D01*
X171563665Y-98396400D01*
X171461556Y-98406457D01*
X171330548Y-98446198D01*
X171209811Y-98510733D01*
X171103983Y-98597583D01*
X171017133Y-98703411D01*
X170952598Y-98824148D01*
X170912857Y-98955156D01*
X170899438Y-99091400D01*
X167242800Y-99091400D01*
X167242800Y-96625535D01*
X167246162Y-96591400D01*
X167242727Y-96556519D01*
X167232743Y-96455156D01*
X167193002Y-96324148D01*
X167128467Y-96203411D01*
X167041617Y-96097583D01*
X166935789Y-96010733D01*
X166815052Y-95946198D01*
X166684044Y-95906457D01*
X166547800Y-95893038D01*
X166513666Y-95896400D01*
X152581934Y-95896400D01*
X152547800Y-95893038D01*
X152513665Y-95896400D01*
X152411556Y-95906457D01*
X152280548Y-95946198D01*
X152159811Y-96010733D01*
X152053983Y-96097583D01*
X151967133Y-96203411D01*
X151902598Y-96324148D01*
X151862857Y-96455156D01*
X151849438Y-96591400D01*
X134171960Y-96591400D01*
X134123088Y-96345708D01*
X133898073Y-95802472D01*
X133571401Y-95313574D01*
X133155626Y-94897799D01*
X132666728Y-94571127D01*
X132123492Y-94346112D01*
X131546797Y-94231400D01*
X130958803Y-94231400D01*
X130382108Y-94346112D01*
X129838872Y-94571127D01*
X129349974Y-94897799D01*
X129142800Y-95104973D01*
X129142800Y-82575535D01*
X129146162Y-82541400D01*
X129132743Y-82405156D01*
X129093002Y-82274148D01*
X129028467Y-82153411D01*
X128941617Y-82047583D01*
X128835789Y-81960733D01*
X128715052Y-81896198D01*
X128584044Y-81856457D01*
X128481935Y-81846400D01*
X128447800Y-81843038D01*
X128413666Y-81846400D01*
X114481934Y-81846400D01*
X114447800Y-81843038D01*
X114413665Y-81846400D01*
X114311556Y-81856457D01*
X114180548Y-81896198D01*
X114059811Y-81960733D01*
X113953983Y-82047583D01*
X113867133Y-82153411D01*
X113802598Y-82274148D01*
X113762857Y-82405156D01*
X113749438Y-82541400D01*
X112705000Y-82541400D01*
X112705000Y-80041400D01*
X132799438Y-80041400D01*
X132802800Y-80075535D01*
X132802801Y-94007255D01*
X132799438Y-94041400D01*
X132812857Y-94177644D01*
X132852598Y-94308652D01*
X132917133Y-94429389D01*
X133003983Y-94535217D01*
X133109811Y-94622067D01*
X133230548Y-94686602D01*
X133361556Y-94726343D01*
X133463665Y-94736400D01*
X133463666Y-94736400D01*
X133497800Y-94739762D01*
X133531935Y-94736400D01*
X147463665Y-94736400D01*
X147497800Y-94739762D01*
X147531934Y-94736400D01*
X147531935Y-94736400D01*
X147634044Y-94726343D01*
X147765052Y-94686602D01*
X147885789Y-94622067D01*
X147991617Y-94535217D01*
X148078467Y-94429389D01*
X148143002Y-94308652D01*
X148182743Y-94177644D01*
X148196162Y-94041400D01*
X148192800Y-94007265D01*
X148192800Y-80075535D01*
X148196162Y-80041400D01*
X148182743Y-79905156D01*
X148143002Y-79774148D01*
X148078467Y-79653411D01*
X147991617Y-79547583D01*
X147885789Y-79460733D01*
X147765052Y-79396198D01*
X147634044Y-79356457D01*
X147531935Y-79346400D01*
X147497800Y-79343038D01*
X147463666Y-79346400D01*
X133531934Y-79346400D01*
X133497800Y-79343038D01*
X133463665Y-79346400D01*
X133361556Y-79356457D01*
X133230548Y-79396198D01*
X133109811Y-79460733D01*
X133003983Y-79547583D01*
X132917133Y-79653411D01*
X132852598Y-79774148D01*
X132812857Y-79905156D01*
X132799438Y-80041400D01*
X112705000Y-80041400D01*
X112705000Y-63491400D01*
X113749438Y-63491400D01*
X113752800Y-63525535D01*
X113752801Y-77457255D01*
X113749438Y-77491400D01*
X113762857Y-77627644D01*
X113802598Y-77758652D01*
X113867133Y-77879389D01*
X113953983Y-77985217D01*
X114059811Y-78072067D01*
X114180548Y-78136602D01*
X114311556Y-78176343D01*
X114413665Y-78186400D01*
X114413666Y-78186400D01*
X114447800Y-78189762D01*
X114481935Y-78186400D01*
X128413665Y-78186400D01*
X128447800Y-78189762D01*
X128481934Y-78186400D01*
X128481935Y-78186400D01*
X128584044Y-78176343D01*
X128715052Y-78136602D01*
X128835789Y-78072067D01*
X128941617Y-77985217D01*
X129028467Y-77879389D01*
X129093002Y-77758652D01*
X129132743Y-77627644D01*
X129141237Y-77541400D01*
X151849438Y-77541400D01*
X151852800Y-77575535D01*
X151852801Y-91507255D01*
X151849438Y-91541400D01*
X151862857Y-91677644D01*
X151902598Y-91808652D01*
X151967133Y-91929389D01*
X152053983Y-92035217D01*
X152159811Y-92122067D01*
X152280548Y-92186602D01*
X152411556Y-92226343D01*
X152513665Y-92236400D01*
X152513666Y-92236400D01*
X152547800Y-92239762D01*
X152581935Y-92236400D01*
X166513665Y-92236400D01*
X166547800Y-92239762D01*
X166581934Y-92236400D01*
X166581935Y-92236400D01*
X166684044Y-92226343D01*
X166815052Y-92186602D01*
X166935789Y-92122067D01*
X167041617Y-92035217D01*
X167128467Y-91929389D01*
X167193002Y-91808652D01*
X167232743Y-91677644D01*
X167246162Y-91541400D01*
X167242800Y-91507265D01*
X167242800Y-80041400D01*
X170899438Y-80041400D01*
X170902800Y-80075535D01*
X170902801Y-94007255D01*
X170899438Y-94041400D01*
X170912857Y-94177644D01*
X170952598Y-94308652D01*
X171017133Y-94429389D01*
X171103983Y-94535217D01*
X171209811Y-94622067D01*
X171330548Y-94686602D01*
X171461556Y-94726343D01*
X171563665Y-94736400D01*
X171563666Y-94736400D01*
X171597800Y-94739762D01*
X171631935Y-94736400D01*
X185563665Y-94736400D01*
X185597800Y-94739762D01*
X185631934Y-94736400D01*
X185631935Y-94736400D01*
X185734044Y-94726343D01*
X185865052Y-94686602D01*
X185985789Y-94622067D01*
X186091617Y-94535217D01*
X186178467Y-94429389D01*
X186243002Y-94308652D01*
X186282743Y-94177644D01*
X186296162Y-94041400D01*
X186292800Y-94007265D01*
X186292800Y-84941400D01*
X189949438Y-84941400D01*
X189952800Y-84975535D01*
X189952801Y-98907255D01*
X189949438Y-98941400D01*
X189962857Y-99077644D01*
X190002598Y-99208652D01*
X190067133Y-99329389D01*
X190153983Y-99435217D01*
X190259811Y-99522067D01*
X190380548Y-99586602D01*
X190511556Y-99626343D01*
X190613665Y-99636400D01*
X190613666Y-99636400D01*
X190647800Y-99639762D01*
X190681935Y-99636400D01*
X204613439Y-99636400D01*
X204349727Y-100031072D01*
X204124712Y-100574308D01*
X204010000Y-101151003D01*
X204010000Y-101738997D01*
X204124712Y-102315692D01*
X204349727Y-102858928D01*
X204640285Y-103293778D01*
X204613666Y-103296400D01*
X190681934Y-103296400D01*
X190647800Y-103293038D01*
X190613665Y-103296400D01*
X190511556Y-103306457D01*
X190380548Y-103346198D01*
X190259811Y-103410733D01*
X190153983Y-103497583D01*
X190067133Y-103603411D01*
X190002598Y-103724148D01*
X189962857Y-103855156D01*
X189949438Y-103991400D01*
X189952800Y-104025535D01*
X189952801Y-117957255D01*
X189949438Y-117991400D01*
X189962857Y-118127644D01*
X190002598Y-118258652D01*
X190067133Y-118379389D01*
X190153983Y-118485217D01*
X190259811Y-118572067D01*
X190380548Y-118636602D01*
X190511556Y-118676343D01*
X190613665Y-118686400D01*
X190613666Y-118686400D01*
X190647800Y-118689762D01*
X190681935Y-118686400D01*
X204613665Y-118686400D01*
X204647800Y-118689762D01*
X204681934Y-118686400D01*
X204681935Y-118686400D01*
X204784044Y-118676343D01*
X204915052Y-118636602D01*
X205035789Y-118572067D01*
X205141617Y-118485217D01*
X205228467Y-118379389D01*
X205293002Y-118258652D01*
X205332743Y-118127644D01*
X205346162Y-117991400D01*
X205342800Y-117957265D01*
X205342800Y-104025535D01*
X205346162Y-103991400D01*
X205340038Y-103929219D01*
X205581072Y-104090273D01*
X206124308Y-104315288D01*
X206701003Y-104430000D01*
X207288997Y-104430000D01*
X207865692Y-104315288D01*
X208408928Y-104090273D01*
X208556901Y-103991400D01*
X208999438Y-103991400D01*
X209002800Y-104025535D01*
X209002801Y-117957255D01*
X208999438Y-117991400D01*
X209012857Y-118127644D01*
X209052598Y-118258652D01*
X209117133Y-118379389D01*
X209203983Y-118485217D01*
X209309811Y-118572067D01*
X209430548Y-118636602D01*
X209561556Y-118676343D01*
X209663665Y-118686400D01*
X209663666Y-118686400D01*
X209697800Y-118689762D01*
X209731935Y-118686400D01*
X223663665Y-118686400D01*
X223697800Y-118689762D01*
X223731934Y-118686400D01*
X223731935Y-118686400D01*
X223834044Y-118676343D01*
X223965052Y-118636602D01*
X224085789Y-118572067D01*
X224191617Y-118485217D01*
X224278467Y-118379389D01*
X224343002Y-118258652D01*
X224382743Y-118127644D01*
X224396162Y-117991400D01*
X224392800Y-117957265D01*
X224392800Y-104025535D01*
X224396162Y-103991400D01*
X224382743Y-103855156D01*
X224343002Y-103724148D01*
X224278467Y-103603411D01*
X224191617Y-103497583D01*
X224085789Y-103410733D01*
X223965052Y-103346198D01*
X223834044Y-103306457D01*
X223731935Y-103296400D01*
X223697800Y-103293038D01*
X223663666Y-103296400D01*
X209731934Y-103296400D01*
X209697800Y-103293038D01*
X209663665Y-103296400D01*
X209561556Y-103306457D01*
X209430548Y-103346198D01*
X209309811Y-103410733D01*
X209203983Y-103497583D01*
X209117133Y-103603411D01*
X209052598Y-103724148D01*
X209012857Y-103855156D01*
X208999438Y-103991400D01*
X208556901Y-103991400D01*
X208897826Y-103763601D01*
X209313601Y-103347826D01*
X209640273Y-102858928D01*
X209865288Y-102315692D01*
X209980000Y-101738997D01*
X209980000Y-101151003D01*
X209865288Y-100574308D01*
X209640273Y-100031072D01*
X209313601Y-99542174D01*
X209218822Y-99447395D01*
X209309811Y-99522067D01*
X209430548Y-99586602D01*
X209561556Y-99626343D01*
X209663665Y-99636400D01*
X209663666Y-99636400D01*
X209697800Y-99639762D01*
X209731935Y-99636400D01*
X223663665Y-99636400D01*
X223697800Y-99639762D01*
X223731934Y-99636400D01*
X223731935Y-99636400D01*
X223834044Y-99626343D01*
X223965052Y-99586602D01*
X224085789Y-99522067D01*
X224191617Y-99435217D01*
X224278467Y-99329389D01*
X224343002Y-99208652D01*
X224382743Y-99077644D01*
X224396162Y-98941400D01*
X224392800Y-98907265D01*
X224392800Y-84975535D01*
X224396162Y-84941400D01*
X224382743Y-84805156D01*
X224343002Y-84674148D01*
X224278467Y-84553411D01*
X224191617Y-84447583D01*
X224085789Y-84360733D01*
X223965052Y-84296198D01*
X223834044Y-84256457D01*
X223731935Y-84246400D01*
X223697800Y-84243038D01*
X223663666Y-84246400D01*
X209731934Y-84246400D01*
X209697800Y-84243038D01*
X209663665Y-84246400D01*
X209561556Y-84256457D01*
X209430548Y-84296198D01*
X209309811Y-84360733D01*
X209203983Y-84447583D01*
X209117133Y-84553411D01*
X209052598Y-84674148D01*
X209012857Y-84805156D01*
X208999438Y-84941400D01*
X209002800Y-84975535D01*
X209002801Y-98907255D01*
X208999438Y-98941400D01*
X209012857Y-99077644D01*
X209052598Y-99208652D01*
X209117133Y-99329389D01*
X209191805Y-99420378D01*
X208897826Y-99126399D01*
X208408928Y-98799727D01*
X207865692Y-98574712D01*
X207288997Y-98460000D01*
X206701003Y-98460000D01*
X206124308Y-98574712D01*
X205581072Y-98799727D01*
X205344550Y-98957766D01*
X205346162Y-98941400D01*
X205342800Y-98907265D01*
X205342800Y-84975535D01*
X205346162Y-84941400D01*
X205332743Y-84805156D01*
X205293002Y-84674148D01*
X205228467Y-84553411D01*
X205141617Y-84447583D01*
X205035789Y-84360733D01*
X204915052Y-84296198D01*
X204784044Y-84256457D01*
X204681935Y-84246400D01*
X204647800Y-84243038D01*
X204613666Y-84246400D01*
X190681934Y-84246400D01*
X190647800Y-84243038D01*
X190613665Y-84246400D01*
X190511556Y-84256457D01*
X190380548Y-84296198D01*
X190259811Y-84360733D01*
X190153983Y-84447583D01*
X190067133Y-84553411D01*
X190002598Y-84674148D01*
X189962857Y-84805156D01*
X189949438Y-84941400D01*
X186292800Y-84941400D01*
X186292800Y-80075535D01*
X186296162Y-80041400D01*
X186282743Y-79905156D01*
X186243002Y-79774148D01*
X186178467Y-79653411D01*
X186091617Y-79547583D01*
X185985789Y-79460733D01*
X185865052Y-79396198D01*
X185734044Y-79356457D01*
X185631935Y-79346400D01*
X185597800Y-79343038D01*
X185563666Y-79346400D01*
X171631934Y-79346400D01*
X171597800Y-79343038D01*
X171563665Y-79346400D01*
X171461556Y-79356457D01*
X171330548Y-79396198D01*
X171209811Y-79460733D01*
X171103983Y-79547583D01*
X171017133Y-79653411D01*
X170952598Y-79774148D01*
X170912857Y-79905156D01*
X170899438Y-80041400D01*
X167242800Y-80041400D01*
X167242800Y-77575535D01*
X167246162Y-77541400D01*
X167232743Y-77405156D01*
X167193002Y-77274148D01*
X167128467Y-77153411D01*
X167041617Y-77047583D01*
X166935789Y-76960733D01*
X166815052Y-76896198D01*
X166684044Y-76856457D01*
X166581935Y-76846400D01*
X166547800Y-76843038D01*
X166513666Y-76846400D01*
X152581934Y-76846400D01*
X152547800Y-76843038D01*
X152513665Y-76846400D01*
X152411556Y-76856457D01*
X152280548Y-76896198D01*
X152159811Y-76960733D01*
X152053983Y-77047583D01*
X151967133Y-77153411D01*
X151902598Y-77274148D01*
X151862857Y-77405156D01*
X151849438Y-77541400D01*
X129141237Y-77541400D01*
X129146162Y-77491400D01*
X129142800Y-77457265D01*
X129142800Y-63525535D01*
X129146162Y-63491400D01*
X129132743Y-63355156D01*
X129093002Y-63224148D01*
X129028467Y-63103411D01*
X128941617Y-62997583D01*
X128835789Y-62910733D01*
X128715052Y-62846198D01*
X128584044Y-62806457D01*
X128481935Y-62796400D01*
X128447800Y-62793038D01*
X128413666Y-62796400D01*
X114481934Y-62796400D01*
X114447800Y-62793038D01*
X114413665Y-62796400D01*
X114311556Y-62806457D01*
X114180548Y-62846198D01*
X114059811Y-62910733D01*
X113953983Y-62997583D01*
X113867133Y-63103411D01*
X113802598Y-63224148D01*
X113762857Y-63355156D01*
X113749438Y-63491400D01*
X112705000Y-63491400D01*
X112705000Y-44441400D01*
X113749438Y-44441400D01*
X113752800Y-44475535D01*
X113752801Y-58407255D01*
X113749438Y-58441400D01*
X113762857Y-58577644D01*
X113802598Y-58708652D01*
X113867133Y-58829389D01*
X113953983Y-58935217D01*
X114059811Y-59022067D01*
X114180548Y-59086602D01*
X114311556Y-59126343D01*
X114413665Y-59136400D01*
X114413666Y-59136400D01*
X114447800Y-59139762D01*
X114481935Y-59136400D01*
X128413665Y-59136400D01*
X128447800Y-59139762D01*
X128467800Y-59137792D01*
X128467800Y-59230397D01*
X128582512Y-59807092D01*
X128807527Y-60350328D01*
X129134199Y-60839226D01*
X129549974Y-61255001D01*
X130038872Y-61581673D01*
X130582108Y-61806688D01*
X131158803Y-61921400D01*
X131746797Y-61921400D01*
X132323492Y-61806688D01*
X132802800Y-61608153D01*
X132802801Y-74957255D01*
X132799438Y-74991400D01*
X132812857Y-75127644D01*
X132852598Y-75258652D01*
X132917133Y-75379389D01*
X133003983Y-75485217D01*
X133109811Y-75572067D01*
X133230548Y-75636602D01*
X133361556Y-75676343D01*
X133463665Y-75686400D01*
X133463666Y-75686400D01*
X133497800Y-75689762D01*
X133531935Y-75686400D01*
X147463665Y-75686400D01*
X147497800Y-75689762D01*
X147531934Y-75686400D01*
X147531935Y-75686400D01*
X147634044Y-75676343D01*
X147765052Y-75636602D01*
X147885789Y-75572067D01*
X147991617Y-75485217D01*
X148078467Y-75379389D01*
X148143002Y-75258652D01*
X148182743Y-75127644D01*
X148196162Y-74991400D01*
X148192800Y-74957265D01*
X148192800Y-61025535D01*
X148196162Y-60991400D01*
X148182743Y-60855156D01*
X148143002Y-60724148D01*
X148078467Y-60603411D01*
X147991617Y-60497583D01*
X147885789Y-60410733D01*
X147765052Y-60346198D01*
X147634044Y-60306457D01*
X147531935Y-60296400D01*
X147497800Y-60293038D01*
X147463666Y-60296400D01*
X134120411Y-60296400D01*
X134323088Y-59807092D01*
X134437800Y-59230397D01*
X134437800Y-58642403D01*
X134407764Y-58491400D01*
X151849438Y-58491400D01*
X151852800Y-58525535D01*
X151852801Y-72457255D01*
X151849438Y-72491400D01*
X151862857Y-72627644D01*
X151902598Y-72758652D01*
X151967133Y-72879389D01*
X152053983Y-72985217D01*
X152159811Y-73072067D01*
X152280548Y-73136602D01*
X152411556Y-73176343D01*
X152513665Y-73186400D01*
X152513666Y-73186400D01*
X152547800Y-73189762D01*
X152581935Y-73186400D01*
X166513665Y-73186400D01*
X166547800Y-73189762D01*
X166581934Y-73186400D01*
X166581935Y-73186400D01*
X166684044Y-73176343D01*
X166815052Y-73136602D01*
X166935789Y-73072067D01*
X167041617Y-72985217D01*
X167128467Y-72879389D01*
X167193002Y-72758652D01*
X167232743Y-72627644D01*
X167246162Y-72491400D01*
X167242800Y-72457265D01*
X167242800Y-60991400D01*
X170899438Y-60991400D01*
X170902800Y-61025535D01*
X170902801Y-74957255D01*
X170899438Y-74991400D01*
X170912857Y-75127644D01*
X170952598Y-75258652D01*
X171017133Y-75379389D01*
X171103983Y-75485217D01*
X171209811Y-75572067D01*
X171330548Y-75636602D01*
X171461556Y-75676343D01*
X171563665Y-75686400D01*
X171563666Y-75686400D01*
X171597800Y-75689762D01*
X171631935Y-75686400D01*
X185563665Y-75686400D01*
X185597800Y-75689762D01*
X185631934Y-75686400D01*
X185631935Y-75686400D01*
X185734044Y-75676343D01*
X185865052Y-75636602D01*
X185985789Y-75572067D01*
X186091617Y-75485217D01*
X186178467Y-75379389D01*
X186243002Y-75258652D01*
X186282743Y-75127644D01*
X186296162Y-74991400D01*
X186292800Y-74957265D01*
X186292800Y-65891400D01*
X189949438Y-65891400D01*
X189952800Y-65925535D01*
X189952801Y-79857255D01*
X189949438Y-79891400D01*
X189962857Y-80027644D01*
X190002598Y-80158652D01*
X190067133Y-80279389D01*
X190153983Y-80385217D01*
X190259811Y-80472067D01*
X190380548Y-80536602D01*
X190511556Y-80576343D01*
X190613665Y-80586400D01*
X190613666Y-80586400D01*
X190647800Y-80589762D01*
X190681935Y-80586400D01*
X204613665Y-80586400D01*
X204647800Y-80589762D01*
X204681934Y-80586400D01*
X204681935Y-80586400D01*
X204784044Y-80576343D01*
X204915052Y-80536602D01*
X205035789Y-80472067D01*
X205141617Y-80385217D01*
X205228467Y-80279389D01*
X205293002Y-80158652D01*
X205332743Y-80027644D01*
X205346162Y-79891400D01*
X205342800Y-79857265D01*
X205342800Y-65925535D01*
X205346162Y-65891400D01*
X205332743Y-65755156D01*
X205293002Y-65624148D01*
X205228467Y-65503411D01*
X205141617Y-65397583D01*
X205035789Y-65310733D01*
X204915052Y-65246198D01*
X204784044Y-65206457D01*
X204681935Y-65196400D01*
X204647800Y-65193038D01*
X204613666Y-65196400D01*
X190681934Y-65196400D01*
X190647800Y-65193038D01*
X190613665Y-65196400D01*
X190511556Y-65206457D01*
X190380548Y-65246198D01*
X190259811Y-65310733D01*
X190153983Y-65397583D01*
X190067133Y-65503411D01*
X190002598Y-65624148D01*
X189962857Y-65755156D01*
X189949438Y-65891400D01*
X186292800Y-65891400D01*
X186292800Y-61025535D01*
X186296162Y-60991400D01*
X186282743Y-60855156D01*
X186243002Y-60724148D01*
X186178467Y-60603411D01*
X186091617Y-60497583D01*
X185985789Y-60410733D01*
X185865052Y-60346198D01*
X185734044Y-60306457D01*
X185631935Y-60296400D01*
X185597800Y-60293038D01*
X185563666Y-60296400D01*
X171631934Y-60296400D01*
X171597800Y-60293038D01*
X171563665Y-60296400D01*
X171461556Y-60306457D01*
X171330548Y-60346198D01*
X171209811Y-60410733D01*
X171103983Y-60497583D01*
X171017133Y-60603411D01*
X170952598Y-60724148D01*
X170912857Y-60855156D01*
X170899438Y-60991400D01*
X167242800Y-60991400D01*
X167242800Y-58525535D01*
X167246162Y-58491400D01*
X167232743Y-58355156D01*
X167193002Y-58224148D01*
X167128467Y-58103411D01*
X167041617Y-57997583D01*
X166935789Y-57910733D01*
X166815052Y-57846198D01*
X166684044Y-57806457D01*
X166581935Y-57796400D01*
X166547800Y-57793038D01*
X166513666Y-57796400D01*
X152581934Y-57796400D01*
X152547800Y-57793038D01*
X152513665Y-57796400D01*
X152411556Y-57806457D01*
X152280548Y-57846198D01*
X152159811Y-57910733D01*
X152053983Y-57997583D01*
X151967133Y-58103411D01*
X151902598Y-58224148D01*
X151862857Y-58355156D01*
X151849438Y-58491400D01*
X134407764Y-58491400D01*
X134323088Y-58065708D01*
X134098073Y-57522472D01*
X133771401Y-57033574D01*
X133364456Y-56626629D01*
X133463665Y-56636400D01*
X133463666Y-56636400D01*
X133497800Y-56639762D01*
X133531935Y-56636400D01*
X147463665Y-56636400D01*
X147497800Y-56639762D01*
X147531934Y-56636400D01*
X147531935Y-56636400D01*
X147634044Y-56626343D01*
X147765052Y-56586602D01*
X147885789Y-56522067D01*
X147991617Y-56435217D01*
X148078467Y-56329389D01*
X148143002Y-56208652D01*
X148182743Y-56077644D01*
X148196162Y-55941400D01*
X148192800Y-55907265D01*
X148192800Y-41975535D01*
X148196162Y-41941400D01*
X148182743Y-41805156D01*
X148143002Y-41674148D01*
X148078467Y-41553411D01*
X147991617Y-41447583D01*
X147885789Y-41360733D01*
X147765052Y-41296198D01*
X147634044Y-41256457D01*
X147531935Y-41246400D01*
X147497800Y-41243038D01*
X147463666Y-41246400D01*
X133531934Y-41246400D01*
X133497800Y-41243038D01*
X133463665Y-41246400D01*
X133361556Y-41256457D01*
X133230548Y-41296198D01*
X133109811Y-41360733D01*
X133003983Y-41447583D01*
X132917133Y-41553411D01*
X132852598Y-41674148D01*
X132812857Y-41805156D01*
X132799438Y-41941400D01*
X132802800Y-41975535D01*
X132802801Y-55907255D01*
X132799438Y-55941400D01*
X132812857Y-56077644D01*
X132852598Y-56208652D01*
X132913323Y-56322261D01*
X132866728Y-56291127D01*
X132323492Y-56066112D01*
X131746797Y-55951400D01*
X131158803Y-55951400D01*
X130582108Y-56066112D01*
X130038872Y-56291127D01*
X129549974Y-56617799D01*
X129142800Y-57024973D01*
X129142800Y-44475535D01*
X129146162Y-44441400D01*
X129132743Y-44305156D01*
X129093002Y-44174148D01*
X129028467Y-44053411D01*
X128941617Y-43947583D01*
X128835789Y-43860733D01*
X128715052Y-43796198D01*
X128584044Y-43756457D01*
X128481935Y-43746400D01*
X128447800Y-43743038D01*
X128413666Y-43746400D01*
X114481934Y-43746400D01*
X114447800Y-43743038D01*
X114413665Y-43746400D01*
X114311556Y-43756457D01*
X114180548Y-43796198D01*
X114059811Y-43860733D01*
X113953983Y-43947583D01*
X113867133Y-44053411D01*
X113802598Y-44174148D01*
X113762857Y-44305156D01*
X113749438Y-44441400D01*
X112705000Y-44441400D01*
X112705000Y-39441400D01*
X151849438Y-39441400D01*
X151852800Y-39475535D01*
X151852801Y-53407255D01*
X151849438Y-53441400D01*
X151862857Y-53577644D01*
X151902598Y-53708652D01*
X151967133Y-53829389D01*
X152053983Y-53935217D01*
X152159811Y-54022067D01*
X152280548Y-54086602D01*
X152411556Y-54126343D01*
X152513665Y-54136400D01*
X152513666Y-54136400D01*
X152547800Y-54139762D01*
X152581935Y-54136400D01*
X166513665Y-54136400D01*
X166547800Y-54139762D01*
X166581934Y-54136400D01*
X166581935Y-54136400D01*
X166684044Y-54126343D01*
X166815052Y-54086602D01*
X166935789Y-54022067D01*
X167041617Y-53935217D01*
X167128467Y-53829389D01*
X167193002Y-53708652D01*
X167232743Y-53577644D01*
X167246162Y-53441400D01*
X167242800Y-53407265D01*
X167242800Y-41941400D01*
X170899438Y-41941400D01*
X170902800Y-41975535D01*
X170902801Y-55907255D01*
X170899438Y-55941400D01*
X170912857Y-56077644D01*
X170952598Y-56208652D01*
X171017133Y-56329389D01*
X171103983Y-56435217D01*
X171209811Y-56522067D01*
X171330548Y-56586602D01*
X171461556Y-56626343D01*
X171563665Y-56636400D01*
X171563666Y-56636400D01*
X171597800Y-56639762D01*
X171631935Y-56636400D01*
X185563665Y-56636400D01*
X185597800Y-56639762D01*
X185631934Y-56636400D01*
X185631935Y-56636400D01*
X185734044Y-56626343D01*
X185865052Y-56586602D01*
X185985789Y-56522067D01*
X186091617Y-56435217D01*
X186178467Y-56329389D01*
X186243002Y-56208652D01*
X186282743Y-56077644D01*
X186296162Y-55941400D01*
X186292800Y-55907265D01*
X186292800Y-46841400D01*
X189949438Y-46841400D01*
X189952800Y-46875535D01*
X189952801Y-60807255D01*
X189949438Y-60841400D01*
X189962857Y-60977644D01*
X190002598Y-61108652D01*
X190067133Y-61229389D01*
X190153983Y-61335217D01*
X190259811Y-61422067D01*
X190380548Y-61486602D01*
X190511556Y-61526343D01*
X190613665Y-61536400D01*
X190613666Y-61536400D01*
X190647800Y-61539762D01*
X190681935Y-61536400D01*
X204347520Y-61536400D01*
X204124712Y-62074308D01*
X204010000Y-62651003D01*
X204010000Y-63238997D01*
X204124712Y-63815692D01*
X204349727Y-64358928D01*
X204676399Y-64847826D01*
X205092174Y-65263601D01*
X205581072Y-65590273D01*
X206124308Y-65815288D01*
X206701003Y-65930000D01*
X207288997Y-65930000D01*
X207483051Y-65891400D01*
X208999438Y-65891400D01*
X209002800Y-65925535D01*
X209002801Y-79857255D01*
X208999438Y-79891400D01*
X209012857Y-80027644D01*
X209052598Y-80158652D01*
X209117133Y-80279389D01*
X209203983Y-80385217D01*
X209309811Y-80472067D01*
X209430548Y-80536602D01*
X209561556Y-80576343D01*
X209663665Y-80586400D01*
X209663666Y-80586400D01*
X209697800Y-80589762D01*
X209731935Y-80586400D01*
X223663665Y-80586400D01*
X223697800Y-80589762D01*
X223731934Y-80586400D01*
X223731935Y-80586400D01*
X223834044Y-80576343D01*
X223965052Y-80536602D01*
X224085789Y-80472067D01*
X224191617Y-80385217D01*
X224278467Y-80279389D01*
X224343002Y-80158652D01*
X224382743Y-80027644D01*
X224396162Y-79891400D01*
X224392800Y-79857265D01*
X224392800Y-65925535D01*
X224396162Y-65891400D01*
X224382743Y-65755156D01*
X224343002Y-65624148D01*
X224278467Y-65503411D01*
X224191617Y-65397583D01*
X224085789Y-65310733D01*
X223965052Y-65246198D01*
X223834044Y-65206457D01*
X223731935Y-65196400D01*
X223697800Y-65193038D01*
X223663666Y-65196400D01*
X209731934Y-65196400D01*
X209697800Y-65193038D01*
X209663665Y-65196400D01*
X209561556Y-65206457D01*
X209430548Y-65246198D01*
X209309811Y-65310733D01*
X209203983Y-65397583D01*
X209117133Y-65503411D01*
X209052598Y-65624148D01*
X209012857Y-65755156D01*
X208999438Y-65891400D01*
X207483051Y-65891400D01*
X207865692Y-65815288D01*
X208408928Y-65590273D01*
X208897826Y-65263601D01*
X209313601Y-64847826D01*
X209640273Y-64358928D01*
X209865288Y-63815692D01*
X209980000Y-63238997D01*
X209980000Y-62651003D01*
X209865288Y-62074308D01*
X209641579Y-61534225D01*
X209663665Y-61536400D01*
X209663666Y-61536400D01*
X209697800Y-61539762D01*
X209731935Y-61536400D01*
X223663665Y-61536400D01*
X223697800Y-61539762D01*
X223731934Y-61536400D01*
X223731935Y-61536400D01*
X223834044Y-61526343D01*
X223965052Y-61486602D01*
X224085789Y-61422067D01*
X224191617Y-61335217D01*
X224278467Y-61229389D01*
X224343002Y-61108652D01*
X224382743Y-60977644D01*
X224396162Y-60841400D01*
X224392800Y-60807265D01*
X224392800Y-46875535D01*
X224396162Y-46841400D01*
X224382743Y-46705156D01*
X224343002Y-46574148D01*
X224278467Y-46453411D01*
X224191617Y-46347583D01*
X224085789Y-46260733D01*
X223965052Y-46196198D01*
X223834044Y-46156457D01*
X223731935Y-46146400D01*
X223697800Y-46143038D01*
X223663666Y-46146400D01*
X209731934Y-46146400D01*
X209697800Y-46143038D01*
X209663665Y-46146400D01*
X209561556Y-46156457D01*
X209430548Y-46196198D01*
X209309811Y-46260733D01*
X209203983Y-46347583D01*
X209117133Y-46453411D01*
X209052598Y-46574148D01*
X209012857Y-46705156D01*
X208999438Y-46841400D01*
X209002800Y-46875535D01*
X209002801Y-60731374D01*
X208897826Y-60626399D01*
X208408928Y-60299727D01*
X207865692Y-60074712D01*
X207288997Y-59960000D01*
X206701003Y-59960000D01*
X206124308Y-60074712D01*
X205581072Y-60299727D01*
X205342800Y-60458936D01*
X205342800Y-46875535D01*
X205346162Y-46841400D01*
X205332743Y-46705156D01*
X205293002Y-46574148D01*
X205228467Y-46453411D01*
X205141617Y-46347583D01*
X205035789Y-46260733D01*
X204915052Y-46196198D01*
X204784044Y-46156457D01*
X204681935Y-46146400D01*
X204647800Y-46143038D01*
X204613666Y-46146400D01*
X190681934Y-46146400D01*
X190647800Y-46143038D01*
X190613665Y-46146400D01*
X190511556Y-46156457D01*
X190380548Y-46196198D01*
X190259811Y-46260733D01*
X190153983Y-46347583D01*
X190067133Y-46453411D01*
X190002598Y-46574148D01*
X189962857Y-46705156D01*
X189949438Y-46841400D01*
X186292800Y-46841400D01*
X186292800Y-41975535D01*
X186296162Y-41941400D01*
X186282743Y-41805156D01*
X186243002Y-41674148D01*
X186178467Y-41553411D01*
X186091617Y-41447583D01*
X185985789Y-41360733D01*
X185865052Y-41296198D01*
X185734044Y-41256457D01*
X185631935Y-41246400D01*
X185597800Y-41243038D01*
X185563666Y-41246400D01*
X171631934Y-41246400D01*
X171597800Y-41243038D01*
X171563665Y-41246400D01*
X171461556Y-41256457D01*
X171330548Y-41296198D01*
X171209811Y-41360733D01*
X171103983Y-41447583D01*
X171017133Y-41553411D01*
X170952598Y-41674148D01*
X170912857Y-41805156D01*
X170899438Y-41941400D01*
X167242800Y-41941400D01*
X167242800Y-39475535D01*
X167246162Y-39441400D01*
X167232743Y-39305156D01*
X167193002Y-39174148D01*
X167128467Y-39053411D01*
X167041617Y-38947583D01*
X166935789Y-38860733D01*
X166815052Y-38796198D01*
X166684044Y-38756457D01*
X166581935Y-38746400D01*
X166547800Y-38743038D01*
X166513666Y-38746400D01*
X152581934Y-38746400D01*
X152547800Y-38743038D01*
X152513665Y-38746400D01*
X152411556Y-38756457D01*
X152280548Y-38796198D01*
X152159811Y-38860733D01*
X152053983Y-38947583D01*
X151967133Y-39053411D01*
X151902598Y-39174148D01*
X151862857Y-39305156D01*
X151849438Y-39441400D01*
X112705000Y-39441400D01*
X112705000Y-39145821D01*
X112746463Y-39002775D01*
X112846756Y-38852335D01*
X112915575Y-38783516D01*
X112967387Y-38757610D01*
X113193645Y-38682190D01*
X113601036Y-38580342D01*
X113610460Y-38576975D01*
X150008615Y-37130000D01*
X171891299Y-37130000D01*
X225331807Y-45561746D01*
G37*
G04 #@! TD.AperFunction*
M02*
